<svg width="30" height="29" viewBox="0 0 30 29" fill="none" xmlns="http://www.w3.org/2000/svg">
    <path fill-rule="evenodd" clip-rule="evenodd"
        d="M5.20245 7.05762C5.16089 7.00477 5.13041 6.94409 5.11285 6.87919C5.09528 6.8143 5.09098 6.74652 5.1002 6.67993C5.10943 6.61333 5.13199 6.54928 5.16654 6.49161C5.20108 6.43393 5.24691 6.38381 5.30127 6.34425C5.35563 6.30469 5.41741 6.2765 5.48292 6.26137C5.54842 6.24623 5.61631 6.24447 5.68251 6.25617C5.74872 6.26787 5.81188 6.29281 5.86823 6.32948C5.92457 6.36616 5.97295 6.41382 6.01045 6.46962L8.08445 9.32162C10.1784 7.97432 12.6165 7.25974 15.1065 7.26362C17.6934 7.26362 20.1035 8.01862 22.1285 9.32162L24.2025 6.46962C24.2824 6.36792 24.3987 6.30118 24.5269 6.28343C24.655 6.26568 24.7851 6.29829 24.8897 6.37442C24.9943 6.45055 25.0653 6.56426 25.0878 6.69166C25.1104 6.81907 25.0826 6.95024 25.0105 7.05762L22.9485 9.89362C24.5524 11.1048 25.8531 12.6719 26.7482 14.4714C27.6433 16.271 28.1082 18.2538 28.1065 20.2636H2.10645C2.10466 18.2538 2.56962 16.271 3.4647 14.4714C4.35978 12.6719 5.66053 11.1048 7.26445 9.89362L5.20245 7.05762ZM10.1065 15.0136C10.1065 15.3451 9.97475 15.6631 9.74033 15.8975C9.50591 16.1319 9.18797 16.2636 8.85645 16.2636C8.52493 16.2636 8.20699 16.1319 7.97257 15.8975C7.73815 15.6631 7.60645 15.3451 7.60645 15.0136C7.60645 14.6821 7.73815 14.3642 7.97257 14.1297C8.20699 13.8953 8.52493 13.7636 8.85645 13.7636C9.18797 13.7636 9.50591 13.8953 9.74033 14.1297C9.97475 14.3642 10.1065 14.6821 10.1065 15.0136ZM21.3565 16.2636C21.688 16.2636 22.0059 16.1319 22.2403 15.8975C22.4748 15.6631 22.6065 15.3451 22.6065 15.0136C22.6065 14.6821 22.4748 14.3642 22.2403 14.1297C22.0059 13.8953 21.688 13.7636 21.3565 13.7636C21.0249 13.7636 20.707 13.8953 20.4726 14.1297C20.2381 14.3642 20.1065 14.6821 20.1065 15.0136C20.1065 15.3451 20.2381 15.6631 20.4726 15.8975C20.707 16.1319 21.0249 16.2636 21.3565 16.2636Z"
        fill="black" />
</svg>
    