<svg width="30" height="29" viewBox="0 0 30 29" fill="none" xmlns="http://www.w3.org/2000/svg">
    <path
        d="M22.9275 20.9517C21.9935 22.3467 21.0035 23.7077 19.4965 23.7297C17.9885 23.7637 17.5055 22.8417 15.7955 22.8417C14.0735 22.8417 13.5455 23.7077 12.1165 23.7637C10.6425 23.8197 9.52953 22.2787 8.58453 20.9177C6.66053 18.1387 5.18653 13.0197 7.16653 9.57767C8.14553 7.86767 9.90053 6.78767 11.8015 6.75367C13.2415 6.73167 14.6145 7.73267 15.5025 7.73267C16.3805 7.73267 18.0455 6.52867 19.7895 6.70867C20.5195 6.74267 22.5675 7.00167 23.8845 8.93667C23.7825 9.00367 21.4425 10.3767 21.4645 13.2227C21.4995 16.6197 24.4465 17.7567 24.4805 17.7677C24.4465 17.8467 24.0075 19.3877 22.9275 20.9517ZM16.5035 2.95167C17.3265 2.01767 18.6865 1.30867 19.8125 1.26367C19.9585 2.57967 19.4295 3.90767 18.6425 4.85267C17.8665 5.80867 16.5835 6.55167 15.3235 6.44967C15.1555 5.15667 15.7835 3.80667 16.5035 2.95167Z"
        fill="black" />
</svg>
    