<svg width="226" height="112" viewBox="0 0 226 112" fill="none" xmlns="http://www.w3.org/2000/svg">
<path d="M62.1194 6V5H61.5444L61.2552 5.49693L62.1194 6ZM214.667 6C214.667 8.94552 217.054 11.3333 220 11.3333C222.946 11.3333 225.333 8.94552 225.333 6C225.333 3.05448 222.946 0.666667 220 0.666667C217.054 0.666667 214.667 3.05448 214.667 6ZM1.86425 111.503L62.9837 6.50307L61.2552 5.49693L0.135754 110.497L1.86425 111.503ZM62.1194 7H220V5H62.1194V7Z" fill="white"/>
<path d="M62.1194 6V5H61.5444L61.2552 5.49693L62.1194 6ZM214.667 6C214.667 8.94552 217.054 11.3333 220 11.3333C222.946 11.3333 225.333 8.94552 225.333 6C225.333 3.05448 222.946 0.666667 220 0.666667C217.054 0.666667 214.667 3.05448 214.667 6ZM1.86425 111.503L62.9837 6.50307L61.2552 5.49693L0.135754 110.497L1.86425 111.503ZM62.1194 7H220V5H62.1194V7Z" fill="url(#paint0_linear_81_97)"/>
<defs>
<linearGradient id="paint0_linear_81_97" x1="1" y1="58.5" x2="220" y2="58.5" gradientUnits="userSpaceOnUse">
<stop stop-color="#3DB6F8"/>
<stop offset="0.5" stop-color="#5B67D5"/>
<stop offset="1" stop-color="#A76BF3"/>
</linearGradient>
</defs>
</svg>
