<svg width="29" height="33" viewBox="0 0 29 33" fill="none" xmlns="http://www.w3.org/2000/svg">
    <path fill-rule="evenodd" clip-rule="evenodd"
        d="M26.8713 7.93967L27.6233 6.09867C27.6233 6.09867 26.6663 5.07367 25.5053 3.91367C24.3453 2.75367 21.8853 3.43667 21.8853 3.43667L19.0863 0.263672H9.24935L6.44935 3.43767C6.44935 3.43767 3.98935 2.75467 2.82935 3.91467C2.11209 4.63167 1.406 5.35976 0.711348 6.09867L1.46335 7.93967L0.506348 10.6697C0.506348 10.6697 3.31935 21.3097 3.64835 22.6097C4.29835 25.1667 4.74135 26.1557 6.58635 27.4527C8.42935 28.7487 11.7763 30.9997 12.3223 31.3427C12.8693 31.6827 13.5523 32.2637 14.1673 32.2637C14.7823 32.2637 15.4653 31.6827 16.0113 31.3417C16.5583 31.0007 19.9043 28.7487 21.7493 27.4527C23.5933 26.1567 24.0373 25.1667 24.6863 22.6087C25.0163 21.3087 27.8273 10.6687 27.8273 10.6687L26.8713 7.93967Z"
        fill="url(#paint0_linear_18_5931)" />
    <path fill-rule="evenodd" clip-rule="evenodd"
        d="M17.6503 6.02962C18.0603 6.02962 21.1003 5.44963 21.1003 5.44963C21.1003 5.44963 24.7023 9.79962 24.7023 10.7296C24.7023 11.4976 24.3923 11.7976 24.0273 12.1526C23.9507 12.226 23.8727 12.3043 23.7933 12.3876L21.0933 15.2516L21.0043 15.3416C20.7343 15.6116 20.3383 16.0116 20.6173 16.6736L20.6753 16.8086C20.9823 17.5256 21.3613 18.4116 20.8793 19.3086C20.3653 20.2636 19.4863 20.9006 18.9223 20.7946C18.3593 20.6896 17.0363 19.9986 16.5493 19.6846C16.0633 19.3676 14.5193 18.0976 14.5193 17.6106C14.5193 17.2056 15.6293 16.5306 16.1693 16.2026C16.2763 16.1376 16.3603 16.0866 16.4093 16.0536C16.4643 16.0166 16.5583 15.9586 16.6723 15.8876C17.1643 15.5816 18.0523 15.0306 18.0753 14.7866C18.1023 14.4846 18.0923 14.3966 17.6953 13.6526C17.6113 13.4936 17.5123 13.3246 17.4103 13.1496C17.0333 12.4996 16.6103 11.7736 16.7043 11.2536C16.8093 10.6656 17.7313 10.3286 18.5123 10.0436C18.6103 10.0083 18.705 9.97329 18.7963 9.93863L19.6093 9.63363C20.3893 9.34163 21.2543 9.01762 21.3983 8.95162C21.5953 8.86162 21.5443 8.77463 20.9453 8.71763L20.6553 8.68762C19.9133 8.60862 18.5453 8.46363 17.8813 8.64863C17.7513 8.68563 17.6043 8.72463 17.4513 8.76663C16.7043 8.96863 15.7893 9.21663 15.7013 9.35863L15.6563 9.42562C15.5723 9.54562 15.5173 9.62263 15.6103 10.1296L15.7653 10.9456C15.9713 12.0226 16.2933 13.7006 16.3343 14.0776C16.3397 14.131 16.3457 14.182 16.3523 14.2306C16.4033 14.6506 16.4373 14.9306 15.9483 15.0436L15.8213 15.0726C15.2683 15.1986 14.4593 15.3846 14.1673 15.3846C13.8753 15.3846 13.0653 15.1986 12.5133 15.0726L12.3863 15.0426C11.8963 14.9316 11.9313 14.6516 11.9833 14.2306L12.0003 14.0776C12.0403 13.7006 12.3643 12.0176 12.5703 10.9416C12.6403 10.5756 12.6973 10.2806 12.7243 10.1296C12.8173 9.62263 12.7623 9.54462 12.6783 9.42562L12.6333 9.35863C12.5463 9.21563 11.6313 8.96863 10.8833 8.76663C10.7303 8.72463 10.5833 8.68563 10.4533 8.64863C9.78832 8.46363 8.42132 8.60862 7.68032 8.68762L7.39032 8.71763C6.79032 8.77463 6.74032 8.86162 6.93732 8.95162C7.08032 9.01762 7.94532 9.34163 8.72432 9.63363L9.53832 9.93863C9.63032 9.97396 9.72532 10.009 9.82332 10.0436C10.6033 10.3296 11.5253 10.6656 11.6303 11.2536C11.7243 11.7736 11.3013 12.5006 10.9243 13.1496C10.8223 13.3246 10.7243 13.4936 10.6393 13.6526C10.2433 14.3966 10.2323 14.4846 10.2593 14.7866C10.2823 15.0316 11.1693 15.5816 11.6613 15.8866C11.7763 15.9586 11.8703 16.0166 11.9253 16.0536C11.9753 16.0866 12.0583 16.1376 12.1653 16.2036C12.7053 16.5306 13.8143 17.2046 13.8143 17.6106C13.8143 18.0966 12.2723 19.3676 11.7843 19.6836C11.2993 19.9996 9.97532 20.6896 9.41132 20.7946C8.84832 20.9006 7.96832 20.2636 7.45532 19.3086C6.97332 18.4116 7.35232 17.5256 7.65932 16.8086L7.71632 16.6736C7.99632 16.0116 7.60032 15.6126 7.33032 15.3416L7.24232 15.2516L4.54232 12.3876C4.46232 12.305 4.38399 12.2266 4.30732 12.1526C3.94232 11.7986 3.63232 11.4976 3.63232 10.7286C3.63232 9.79863 7.23432 5.44963 7.23432 5.44963C7.23432 5.44963 10.2743 6.02962 10.6843 6.02962C11.0113 6.02962 11.6423 5.81263 12.3003 5.58563C12.4677 5.52763 12.6347 5.47096 12.8013 5.41563C13.6213 5.14263 14.1673 5.14062 14.1673 5.14062C14.1673 5.14062 14.7133 5.14263 15.5333 5.41563L16.0343 5.58563C16.6923 5.81263 17.3243 6.02962 17.6503 6.02962ZM17.1293 21.4146C17.7713 21.7446 18.2273 21.9796 18.3993 22.0866C18.6223 22.2266 18.4873 22.4896 18.2833 22.6336C18.0803 22.7756 15.3513 24.8876 15.0863 25.1206L14.9783 25.2166C14.7233 25.4466 14.3983 25.7396 14.1673 25.7396C13.9373 25.7396 13.6113 25.4456 13.3553 25.2166L13.2483 25.1206C12.9833 24.8876 10.2543 22.7756 10.0513 22.6326C9.84832 22.4896 9.71132 22.2266 9.93432 22.0866C10.1073 21.9796 10.5643 21.7446 11.2073 21.4136L11.8173 21.0976C12.7803 20.6006 13.9803 20.1776 14.1673 20.1776C14.3543 20.1776 15.5543 20.6006 16.5173 21.0976L17.1293 21.4146Z"
        fill="white" />
    <path fill-rule="evenodd" clip-rule="evenodd"
        d="M21.8863 3.43767L19.0843 0.263672H9.24935L6.44935 3.43767C6.44935 3.43767 3.98935 2.75467 2.82935 3.91467C2.82935 3.91467 6.10835 3.61867 7.23435 5.44967C7.23435 5.44967 10.2743 6.02967 10.6843 6.02967C11.0943 6.02967 11.9813 5.68967 12.8013 5.41567C13.6213 5.14167 14.1673 5.14067 14.1673 5.14067C14.1673 5.14067 14.7133 5.14267 15.5333 5.41567C16.3533 5.68867 17.2413 6.02967 17.6503 6.02967C18.0593 6.02967 21.1003 5.44967 21.1003 5.44967C22.2273 3.61967 25.5053 3.91467 25.5053 3.91467C24.3453 2.75467 21.8863 3.43767 21.8863 3.43767Z"
        fill="url(#paint1_linear_18_5931)" />
    <defs>
        <linearGradient id="paint0_linear_18_5931" x1="0.507348" y1="32.4897" x2="27.8273"
            y2="32.4897" gradientUnits="userSpaceOnUse">
            <stop stop-color="#FF5500" />
            <stop offset="0.41" stop-color="#FF5500" />
            <stop offset="0.582" stop-color="#FF2000" />
            <stop offset="1" stop-color="#FF2000" />
        </linearGradient>
        <linearGradient id="paint1_linear_18_5931" x1="3.31635" y1="6.00867" x2="25.5053"
            y2="6.00867" gradientUnits="userSpaceOnUse">
            <stop stop-color="#FF452A" />
            <stop offset="1" stop-color="#FF2000" />
        </linearGradient>
    </defs>
</svg>
    