<svg width="29" height="29" viewBox="0 0 29 29" fill="none" xmlns="http://www.w3.org/2000/svg">
    <path
        d="M21.5063 14.2637C21.5063 18.1287 18.3713 21.2637 14.5063 21.2637C10.6413 21.2637 7.50635 18.1287 7.50635 14.2637C7.50635 10.3987 10.6413 7.26367 14.5063 7.26367C18.3713 7.26367 21.5063 10.3987 21.5063 14.2637Z"
        fill="white" />
    <path
        d="M19.6363 17.9107L13.9263 28.2497C6.46335 27.9487 0.506348 21.7957 0.506348 14.2637C0.506348 6.53567 6.77835 0.263672 14.5063 0.263672V7.96367C12.8355 7.96367 11.2331 8.62742 10.0516 9.8089C8.8701 10.9904 8.20635 12.5928 8.20635 14.2637C8.20635 15.9345 8.8701 17.537 10.0516 18.7184C11.2331 19.8999 12.8355 20.5637 14.5063 20.5637C15.5115 20.565 16.5022 20.3247 17.395 19.863C18.2878 19.4013 19.0565 18.7317 19.6363 17.9107Z"
        fill="url(#paint0_linear_18_5910)" />
    <path
        d="M28.5065 14.2637C28.5065 21.9987 22.2415 28.2637 14.5065 28.2637H13.9185L19.6385 17.9107C20.3992 16.8469 20.8076 15.5715 20.8065 14.2637C20.8065 12.5928 20.1427 10.9904 18.9612 9.8089C17.7798 8.62742 16.1773 7.96367 14.5065 7.96367V0.263672C19.9735 0.263672 24.6915 3.39967 27.0015 7.96367C27.9887 9.91715 28.5042 12.0749 28.5065 14.2637Z"
        fill="url(#paint1_linear_18_5910)" />
    <path
        d="M26.9943 7.96368H14.5063C12.8355 7.96368 11.2331 8.62743 10.0516 9.80891C8.87009 10.9904 8.20635 12.5928 8.20635 14.2637C8.20635 15.3067 8.45835 16.2867 8.91335 17.1537H8.90635L2.71835 6.74668H2.70435C3.9653 4.75856 5.70857 3.12164 7.77202 1.98815C9.83547 0.854672 12.1521 0.261455 14.5063 0.263678C19.9663 0.263678 24.6913 3.39968 26.9943 7.96368Z"
        fill="url(#paint2_linear_18_5910)" />
    <path
        d="M19.4064 14.2638C19.4064 15.5633 18.8902 16.8097 17.9713 17.7286C17.0523 18.6475 15.806 19.1638 14.5064 19.1638C13.2069 19.1638 11.9606 18.6475 11.0416 17.7286C10.1227 16.8097 9.60645 15.5633 9.60645 14.2638C9.60645 12.9642 10.1227 11.7179 11.0416 10.7989C11.9606 9.88002 13.2069 9.36377 14.5064 9.36377C15.806 9.36377 17.0523 9.88002 17.9713 10.7989C18.8902 11.7179 19.4064 12.9642 19.4064 14.2638Z"
        fill="url(#paint3_linear_18_5910)" />
    <defs>
        <linearGradient id="paint0_linear_18_5910" x1="1.75835" y1="8.41467" x2="19.6333"
            y2="17.9187" gradientUnits="userSpaceOnUse">
            <stop stop-color="#4CAF50" />
            <stop offset="0.489" stop-color="#4AAF50" />
            <stop offset="0.665" stop-color="#43AD50" />
            <stop offset="0.79" stop-color="#38AA50" />
            <stop offset="0.892" stop-color="#27A550" />
            <stop offset="0.978" stop-color="#11A050" />
            <stop offset="1" stop-color="#0A9E50" />
        </linearGradient>
        <linearGradient id="paint1_linear_18_5910" x1="21.2125" y1="28.2637" x2="21.2125"
            y2="8.10567" gradientUnits="userSpaceOnUse">
            <stop stop-color="#FFD747" />
            <stop offset="0.482" stop-color="#FFD645" />
            <stop offset="0.655" stop-color="#FED43E" />
            <stop offset="0.779" stop-color="#FCCF33" />
            <stop offset="0.879" stop-color="#FAC922" />
            <stop offset="0.964" stop-color="#F7C10C" />
            <stop offset="1" stop-color="#F5BC00" />
        </linearGradient>
        <linearGradient id="paint2_linear_18_5910" x1="22.9963" y1="1.45568" x2="5.80835"
            y2="12.1957" gradientUnits="userSpaceOnUse">
            <stop stop-color="#F7572F" />
            <stop offset="0.523" stop-color="#F7552D" />
            <stop offset="0.712" stop-color="#F75026" />
            <stop offset="0.846" stop-color="#F7461B" />
            <stop offset="0.954" stop-color="#F7390A" />
            <stop offset="1" stop-color="#F73100" />
        </linearGradient>
        <linearGradient id="paint3_linear_18_5910" x1="11.0414" y1="10.7988" x2="17.9714"
            y2="17.7288" gradientUnits="userSpaceOnUse">
            <stop stop-color="#2AA4F4" />
            <stop offset="1" stop-color="#007AD9" />
        </linearGradient>
    </defs>
</svg>
    