<svg width="29" height="29" viewBox="0 0 29 29" fill="none" xmlns="http://www.w3.org/2000/svg">
    <path
        d="M0.506592 13.9007C0.506592 8.43367 5.09659 0.263672 14.5166 0.263672C23.9226 0.263672 28.5066 7.20967 28.5066 12.0977C28.5066 16.0197 25.4066 18.9097 21.5126 18.9097C18.5406 18.9097 16.7806 17.9237 16.7806 17.1387C16.7806 16.6307 18.0096 15.8527 18.0096 14.3517C18.0096 12.5557 16.6196 10.7557 14.4776 10.7557C12.4246 10.7557 10.9956 12.4647 10.9956 14.1887C10.9956 18.3547 14.9366 22.3387 20.7476 22.3387C24.2186 22.3387 25.4796 21.0597 25.9296 21.0597C26.0676 21.0597 26.3826 21.1157 26.3826 21.4817C26.3826 21.8317 22.5426 28.2617 14.5246 28.2617C6.54859 28.2637 0.506592 21.9797 0.506592 13.9007Z"
        fill="#1DE9B6" />
    <path
        d="M0.506592 13.9007C0.506592 8.43366 5.83659 5.47266 9.41759 5.47266C18.8246 5.47266 21.5116 7.21066 21.5116 12.0977C21.5116 16.0207 18.0096 15.8537 18.0096 14.3527C18.0096 12.5567 16.6196 10.7567 14.4776 10.7567C12.4246 10.7567 10.9956 12.4667 10.9956 14.1907C10.9956 18.3567 14.9366 22.3407 20.7476 22.3407C24.2186 22.3407 25.4796 21.0607 25.9296 21.0607C26.0676 21.0607 26.3826 21.1177 26.3826 21.4837C26.3826 21.8337 22.5426 28.2637 14.5246 28.2637C6.54859 28.2637 0.506592 21.9797 0.506592 13.9007Z"
        fill="url(#paint0_radial_18_5940)" />
    <path
        d="M10.9966 14.1898C10.9966 12.5808 12.2386 10.9868 14.0726 10.7798C11.1996 11.0238 7.91357 13.8428 7.91357 19.0618C7.91357 24.6358 12.7186 28.4868 17.6736 27.9018C23.5436 26.5518 26.3826 21.7828 26.3826 21.4838C26.3826 21.1178 26.0666 21.0618 25.9296 21.0618C25.4796 21.0618 24.2196 22.3418 20.7476 22.3418C14.9376 22.3418 10.9966 18.3568 10.9966 14.1898Z"
        fill="url(#paint1_radial_18_5940)" />
    <path
        d="M0.506592 13.9007C0.506592 8.43367 5.09659 0.263672 14.5166 0.263672C23.9226 0.263672 28.5066 7.20967 28.5066 12.0977C28.5066 16.0197 25.4066 18.9097 21.5126 18.9097C18.5406 18.9097 16.7806 17.9237 16.7806 17.1387C16.7806 16.6307 18.0096 15.8527 18.0096 14.3517C18.0096 12.5557 16.5566 6.87667 9.16959 6.87667C7.11659 6.87667 1.38659 7.78367 0.506592 13.9007Z"
        fill="url(#paint2_radial_18_5940)" />
    <defs>
        <radialGradient id="paint0_radial_18_5940" cx="0" cy="0" r="1"
            gradientUnits="userSpaceOnUse"
            gradientTransform="translate(10.3016 20.4597) scale(14.9436 16.562)">
            <stop offset="0.652" stop-color="#0083DE" />
            <stop offset="0.822" stop-color="#006AAC" />
            <stop offset="0.944" stop-color="#005A8C" />
        </radialGradient>
        <radialGradient id="paint1_radial_18_5940" cx="0" cy="0" r="1"
            gradientUnits="userSpaceOnUse"
            gradientTransform="translate(17.3636 17.9808) scale(11.5346 11.5669)">
            <stop offset="0.69" stop-color="#05509B" />
            <stop offset="0.717" stop-color="#054E98" />
            <stop offset="1" stop-color="#033E78" />
        </radialGradient>
        <radialGradient id="paint2_radial_18_5940" cx="0" cy="0" r="1"
            gradientUnits="userSpaceOnUse"
            gradientTransform="translate(31.0606 8.70367) rotate(180) scale(43.0724 64.9704)">
            <stop stop-color="#5EEB69" />
            <stop offset="0.214" stop-color="#4BC958" />
            <stop offset="0.225" stop-color="#4AC862" />
            <stop offset="0.272" stop-color="#47C68B" />
            <stop offset="0.323" stop-color="#44C4AE" />
            <stop offset="0.376" stop-color="#41C2CB" />
            <stop offset="0.433" stop-color="#3FC1E1" />
            <stop offset="0.495" stop-color="#3EC0F1" />
            <stop offset="0.565" stop-color="#3DBFFA" />
            <stop offset="0.664" stop-color="#3DBFFD" />
        </radialGradient>
    </defs>
</svg>
    