<svg width="29" height="30" viewBox="0 0 29 30" fill="none" xmlns="http://www.w3.org/2000/svg">
    <path
        d="M27.4913 10.4735C26.8813 9.00748 25.6473 7.42548 24.6793 6.92548C25.3688 8.26158 25.8478 9.69616 26.0993 11.1785L26.1013 11.2015C24.5163 7.25348 21.8303 5.65748 19.6363 2.18948C19.523 2.01254 19.413 1.83351 19.3063 1.65248C19.2507 1.55798 19.199 1.46123 19.1513 1.36248C19.0608 1.18638 18.9907 1.00051 18.9423 0.808484C18.9424 0.799591 18.9392 0.790992 18.9333 0.784344C18.9273 0.777697 18.9192 0.773472 18.9103 0.772484C18.9017 0.771353 18.893 0.771353 18.8843 0.772484L18.8773 0.776484L18.8673 0.781484L18.8723 0.771484C15.3523 2.83348 14.1563 6.64848 14.0483 8.55848C12.6416 8.65419 11.2966 9.17248 10.1893 10.0455C10.074 9.94737 9.9531 9.85589 9.82735 9.77148C9.50818 8.65352 9.49472 7.47042 9.78835 6.34548C8.4957 6.97214 7.34689 7.85979 6.41435 8.95248H6.40835C5.85235 8.24848 5.89135 5.92648 5.92335 5.44248C5.75868 5.50848 5.60268 5.59115 5.45535 5.69048C4.96401 6.04115 4.50735 6.43215 4.08535 6.86348C3.60468 7.35148 3.16801 7.87548 2.77535 8.43548C1.87363 9.71233 1.2346 11.1556 0.895348 12.6815L0.875348 12.7735C0.824014 13.0642 0.778348 13.3562 0.738348 13.6495C0.738348 13.6595 0.737014 13.6695 0.734348 13.6795C0.610101 14.3175 0.533887 14.964 0.506348 15.6135L0.506348 15.6855C0.513838 19.1922 1.83539 22.5688 4.21023 25.1489C6.58508 27.7291 9.84073 29.3254 13.3348 29.623C16.8289 29.9205 20.3076 28.8977 23.0845 26.7563C25.8615 24.6149 27.735 21.5104 28.3353 18.0555C28.3573 17.8755 28.3787 17.6948 28.3993 17.5135C28.6886 15.127 28.3757 12.7061 27.4893 10.4715L27.4913 10.4735ZM11.3363 21.4455C11.4003 21.4788 11.465 21.5108 11.5303 21.5415L11.5403 21.5475L11.3363 21.4455ZM26.1013 11.2055V11.1925L26.1043 11.2075L26.1013 11.2055Z"
        fill="url(#paint0_linear_18_5917)" />
    <path
        d="M27.4913 10.4738C26.8813 9.00778 25.6473 7.42578 24.6793 6.92578C25.3688 8.26188 25.8478 9.69646 26.0993 11.1788V11.1918L26.1013 11.2068C27.181 14.2984 27.0248 17.6876 25.6653 20.6668C24.0583 24.1148 20.1723 27.6468 14.0853 27.4738C7.51028 27.2878 1.71628 22.4068 0.635277 16.0168C0.438277 15.0088 0.635277 14.4978 0.735277 13.6788C0.599277 14.3148 0.524277 14.9628 0.509277 15.6128V15.6848C0.513891 19.1932 1.83406 22.5724 4.20902 25.1548C6.58398 27.7372 9.84104 29.3351 13.3368 29.6328C16.8326 29.9305 20.313 28.9064 23.0904 26.7628C25.8679 24.6192 27.7405 21.5119 28.3383 18.0548C28.3609 17.8748 28.3823 17.6941 28.4023 17.5128C28.6913 15.1266 28.3785 12.7061 27.4923 10.4718L27.4913 10.4738Z"
        fill="url(#paint1_radial_18_5917)" />
    <path
        d="M27.4913 10.4738C26.8813 9.00778 25.6473 7.42578 24.6793 6.92578C25.3688 8.26188 25.8478 9.69646 26.0993 11.1788V11.1918L26.1013 11.2068C27.181 14.2984 27.0248 17.6876 25.6653 20.6668C24.0583 24.1148 20.1723 27.6468 14.0853 27.4738C7.51028 27.2878 1.71628 22.4068 0.635277 16.0168C0.438277 15.0088 0.635277 14.4978 0.735277 13.6788C0.599277 14.3148 0.524277 14.9628 0.509277 15.6128V15.6848C0.513891 19.1932 1.83406 22.5724 4.20902 25.1548C6.58398 27.7372 9.84104 29.3351 13.3368 29.6328C16.8326 29.9305 20.313 28.9064 23.0904 26.7628C25.8679 24.6192 27.7405 21.5119 28.3383 18.0548C28.3609 17.8748 28.3823 17.6941 28.4023 17.5128C28.6913 15.1266 28.3785 12.7061 27.4923 10.4718L27.4913 10.4738Z"
        fill="url(#paint2_radial_18_5917)" />
    <path
        d="M20.6784 12.1185L20.7654 12.1825C20.4137 11.558 19.9753 10.9863 19.4634 10.4845C15.1054 6.12653 18.3214 1.03853 18.8634 0.777531L18.8694 0.769531C15.3484 2.83153 14.1534 6.64653 14.0444 8.55653C14.2084 8.54553 14.3704 8.53153 14.5374 8.53153C15.7864 8.53365 17.0125 8.86659 18.091 9.49648C19.1696 10.1264 20.062 11.0307 20.6774 12.1175L20.6784 12.1185Z"
        fill="url(#paint3_radial_18_5917)" />
    <path
        d="M14.5443 12.9908C14.5213 13.3388 13.2893 14.5408 12.8583 14.5408C8.87332 14.5408 8.22632 16.9528 8.22632 16.9528C8.40232 18.9828 9.81732 20.6558 11.5273 21.5388C11.6053 21.5788 11.6843 21.6161 11.7643 21.6508C11.9017 21.7114 12.0387 21.7678 12.1753 21.8198C12.7622 22.028 13.3771 22.1467 13.9993 22.1718C20.9863 22.4988 22.3393 13.8178 17.2973 11.2968C18.4867 11.1419 19.6912 11.4341 20.6773 12.1168C20.0618 11.0298 19.1692 10.1254 18.0905 9.49546C17.0118 8.86556 15.7855 8.5327 14.5363 8.53076C14.3693 8.53076 14.2063 8.54476 14.0433 8.55576C12.6365 8.65175 11.2914 9.17039 10.1843 10.0438C10.3983 10.2238 10.6393 10.4658 11.1473 10.9668C12.0993 11.9038 14.5383 12.8748 14.5433 12.9888L14.5443 12.9908Z"
        fill="url(#paint4_radial_18_5917)" />
    <path
        d="M14.5443 12.9908C14.5213 13.3388 13.2893 14.5408 12.8583 14.5408C8.87332 14.5408 8.22632 16.9528 8.22632 16.9528C8.40232 18.9828 9.81732 20.6558 11.5273 21.5388C11.6053 21.5788 11.6843 21.6161 11.7643 21.6508C11.9017 21.7114 12.0387 21.7678 12.1753 21.8198C12.7622 22.028 13.3771 22.1467 13.9993 22.1718C20.9863 22.4988 22.3393 13.8178 17.2973 11.2968C18.4867 11.1419 19.6912 11.4341 20.6773 12.1168C20.0618 11.0298 19.1692 10.1254 18.0905 9.49546C17.0118 8.86556 15.7855 8.5327 14.5363 8.53076C14.3693 8.53076 14.2063 8.54476 14.0433 8.55576C12.6365 8.65175 11.2914 9.17039 10.1843 10.0438C10.3983 10.2238 10.6393 10.4658 11.1473 10.9668C12.0993 11.9038 14.5383 12.8748 14.5433 12.9888L14.5443 12.9908Z"
        fill="url(#paint5_radial_18_5917)" />
    <path
        d="M9.53123 9.5797C9.64523 9.6527 9.73923 9.7157 9.82123 9.7717C9.50173 8.65383 9.48792 7.47073 9.78123 6.3457C8.48849 6.97265 7.33967 7.86065 6.40723 8.9537C6.47623 8.9517 8.50923 8.9157 9.53123 9.5797Z"
        fill="url(#paint6_radial_18_5917)" />
    <path
        d="M0.633468 16.0178C1.71447 22.4078 7.50847 27.2898 14.0835 27.4748C20.1695 27.6468 24.0575 24.1138 25.6635 20.6688C27.0233 17.6893 27.1795 14.2997 26.0995 11.2078V11.1938C26.0995 11.1838 26.0965 11.1778 26.0995 11.1808L26.1015 11.2038C26.5985 14.4508 24.9475 17.5938 22.3655 19.7238L22.3575 19.7428C17.3275 23.8408 12.5135 22.2148 11.5405 21.5508L11.3365 21.4498C8.40447 20.0478 7.19247 17.3768 7.45247 15.0848C6.75634 15.0949 6.07222 14.9029 5.48297 14.5321C4.89371 14.1614 4.4246 13.6277 4.13247 12.9958C4.90249 12.5243 5.78036 12.2577 6.68253 12.2215C7.58469 12.1853 8.48112 12.3805 9.28647 12.7888C10.9462 13.5421 12.8347 13.6164 14.5485 12.9958C14.5425 12.8818 12.1035 11.9108 11.1525 10.9738C10.6435 10.4738 10.4025 10.2318 10.1895 10.0508C10.0741 9.95264 9.95323 9.86116 9.82747 9.77675L9.53747 9.58475C8.51547 8.91975 6.48247 8.95675 6.41547 8.95875H6.40847C5.85347 8.25375 5.89247 5.93275 5.92447 5.44775C5.75914 5.51442 5.60313 5.59709 5.45647 5.69575C4.96647 6.04575 4.50647 6.43875 4.08647 6.86975C3.6038 7.35642 3.16513 7.87909 2.77047 8.43775C1.86875 9.71459 1.22972 11.1579 0.890468 12.6838C0.883468 12.7118 0.385468 14.8888 0.630468 16.0178H0.633468Z"
        fill="url(#paint7_radial_18_5917)" />
    <path
        d="M19.4624 10.4834C19.9745 10.9858 20.4128 11.5582 20.7644 12.1834C20.8424 12.2414 20.9124 12.2988 20.9744 12.3554C24.1524 15.2854 22.4874 19.4254 22.3634 19.7194C24.9444 17.5924 26.5944 14.4464 26.0994 11.1984C24.5134 7.24543 21.8244 5.65043 19.6324 2.18243C19.5191 2.00549 19.4091 1.82646 19.3024 1.64543C19.2479 1.55081 19.1966 1.45442 19.1484 1.35643C19.0575 1.18005 18.987 0.993841 18.9384 0.801433C18.9385 0.792539 18.9352 0.78394 18.9293 0.777293C18.9234 0.770646 18.9153 0.766421 18.9064 0.765433C18.8981 0.764387 18.8897 0.764387 18.8814 0.765433L18.8744 0.769433L18.8644 0.774433C18.3214 1.03143 15.1064 6.12343 19.4644 10.4774L19.4624 10.4834Z"
        fill="url(#paint8_radial_18_5917)" />
    <path
        d="M20.9743 12.3576C20.907 12.2972 20.8369 12.2398 20.7643 12.1856C20.7363 12.1636 20.7073 12.1423 20.6773 12.1216C19.6913 11.4386 18.4868 11.146 17.2973 11.3006C22.3393 13.8206 20.9873 22.5006 13.9993 22.1756C13.3775 22.1505 12.7629 22.0318 12.1763 21.8236C11.9554 21.741 11.7388 21.6472 11.5273 21.5426L11.5373 21.5486C12.5113 22.2136 17.3243 23.8386 22.3543 19.7406L22.3623 19.7216C22.4883 19.4296 24.1523 15.2886 20.9733 12.3586L20.9743 12.3576Z"
        fill="url(#paint9_radial_18_5917)" />
    <path
        d="M8.22639 16.9507C8.22639 16.9507 8.87339 14.5397 12.8584 14.5397C13.2894 14.5397 14.5224 13.3367 14.5444 12.9887C12.8306 13.6094 10.9421 13.5351 9.28239 12.7817C8.47717 12.3737 7.58093 12.1785 6.67896 12.2147C5.77699 12.2509 4.89929 12.5174 4.12939 12.9887C4.42168 13.6204 4.89085 14.1539 5.48009 14.5245C6.06933 14.8951 6.75338 15.0869 7.44939 15.0767C7.18939 17.3687 8.40139 20.0387 11.3334 21.4417C11.3984 21.4727 11.4604 21.5077 11.5274 21.5367C9.81639 20.6527 8.40239 18.9797 8.22639 16.9507Z"
        fill="url(#paint10_radial_18_5917)" />
    <path
        d="M27.4914 10.4735C26.8814 9.00748 25.6464 7.42548 24.6794 6.92548C25.3689 8.26158 25.8478 9.69616 26.0994 11.1785L26.1014 11.2015C24.5164 7.25248 21.8304 5.65748 19.6354 2.18948C19.5221 2.01254 19.412 1.83351 19.3054 1.65248C19.2505 1.55754 19.1988 1.46082 19.1504 1.36248C19.0595 1.18642 18.989 1.00055 18.9404 0.808484C18.9404 0.799591 18.9372 0.790992 18.9313 0.784344C18.9254 0.777697 18.9172 0.773472 18.9084 0.772484C18.9001 0.771439 18.8917 0.771439 18.8834 0.772484L18.8764 0.776484L18.8664 0.781484L18.8714 0.771484C15.3514 2.83348 14.1554 6.64848 14.0474 8.55848C14.2104 8.54748 14.3724 8.53348 14.5394 8.53348C15.7886 8.53552 17.015 8.86853 18.0937 9.49861C19.1724 10.1287 20.0649 11.0333 20.6804 12.1205C19.6944 11.4374 18.4898 11.1449 17.3004 11.2995C22.3424 13.8195 20.9904 22.4995 14.0024 22.1745C13.3805 22.1493 12.7659 22.0307 12.1794 21.8225C11.9593 21.7381 11.7431 21.644 11.5314 21.5405L11.5414 21.5475L11.3374 21.4455C11.4024 21.4775 11.4634 21.5105 11.5314 21.5405C9.81937 20.6555 8.40637 18.9845 8.22937 16.9555C8.22937 16.9555 8.87637 14.5445 12.8624 14.5445C13.2924 14.5445 14.5264 13.3415 14.5484 12.9925C14.5424 12.8795 12.1034 11.9085 11.1524 10.9715C10.6434 10.4705 10.4024 10.2295 10.1894 10.0485C10.074 9.95003 9.95315 9.85821 9.82737 9.77348C9.50806 8.65593 9.49425 7.47319 9.78737 6.34848C8.49508 6.97525 7.34663 7.8629 6.41437 8.95548H6.40637C5.85137 8.25148 5.89037 5.92948 5.92237 5.44548C5.75704 5.51082 5.60104 5.59348 5.45437 5.69348C4.96437 6.04348 4.50437 6.43548 4.08437 6.86648C3.60304 7.35448 3.16637 7.87848 2.77437 8.43848C1.8723 9.71525 1.23292 11.1585 0.893371 12.6845L0.874371 12.7765C0.848371 12.9005 0.729371 13.5265 0.712371 13.6615C0.604371 14.3082 0.535371 14.9595 0.505371 15.6155V15.6875C0.511437 19.1952 1.83236 22.5732 4.20735 25.1545C6.58235 27.7359 9.83882 29.333 13.3339 29.6307C16.8289 29.9283 20.3086 28.9048 23.0859 26.7622C25.8632 24.6196 27.7363 21.5137 28.3354 18.0575C28.3574 17.8775 28.3784 17.6968 28.3984 17.5155C28.6876 15.129 28.3748 12.7081 27.4884 10.4735H27.4914Z"
        fill="url(#paint11_linear_18_5917)" />
    <defs>
        <linearGradient id="paint0_linear_18_5917" x1="25.6363" y1="5.24948" x2="2.36635"
            y2="27.7005" gradientUnits="userSpaceOnUse">
            <stop offset="0.048" stop-color="#FFF44F" />
            <stop offset="0.111" stop-color="#FFE847" />
            <stop offset="0.225" stop-color="#FFC830" />
            <stop offset="0.368" stop-color="#FF980E" />
            <stop offset="0.401" stop-color="#FF8B16" />
            <stop offset="0.462" stop-color="#FF672A" />
            <stop offset="0.534" stop-color="#FF3647" />
            <stop offset="0.705" stop-color="#E31587" />
        </linearGradient>
        <radialGradient id="paint1_radial_18_5917" cx="0" cy="0" r="1"
            gradientUnits="userSpaceOnUse"
            gradientTransform="translate(24.7363 4.02478) scale(29.2213)">
            <stop offset="0.129" stop-color="#FFBD4F" />
            <stop offset="0.186" stop-color="#FFAC31" />
            <stop offset="0.247" stop-color="#FF9D17" />
            <stop offset="0.283" stop-color="#FF980E" />
            <stop offset="0.403" stop-color="#FF563B" />
            <stop offset="0.467" stop-color="#FF3750" />
            <stop offset="0.71" stop-color="#F5156C" />
            <stop offset="0.782" stop-color="#EB0878" />
            <stop offset="0.86" stop-color="#E50080" />
        </radialGradient>
        <radialGradient id="paint2_radial_18_5917" cx="0" cy="0" r="1"
            gradientUnits="userSpaceOnUse"
            gradientTransform="translate(13.8863 15.9598) scale(29.2213)">
            <stop offset="0.3" stop-color="#960E18" />
            <stop offset="0.351" stop-color="#B11927" stop-opacity="0.74" />
            <stop offset="0.435" stop-color="#DB293D" stop-opacity="0.343" />
            <stop offset="0.497" stop-color="#F5334B" stop-opacity="0.094" />
            <stop offset="0.53" stop-color="#FF3750" stop-opacity="0" />
        </radialGradient>
        <radialGradient id="paint3_radial_18_5917" cx="0" cy="0" r="1"
            gradientUnits="userSpaceOnUse"
            gradientTransform="translate(17.5024 -2.48447) scale(21.1674 21.1674)">
            <stop offset="0.132" stop-color="#FFF44F" />
            <stop offset="0.252" stop-color="#FFDC3E" />
            <stop offset="0.506" stop-color="#FF9D12" />
            <stop offset="0.526" stop-color="#FF980E" />
        </radialGradient>
        <radialGradient id="paint4_radial_18_5917" cx="0" cy="0" r="1"
            gradientUnits="userSpaceOnUse"
            gradientTransform="translate(10.6313 23.5538) scale(13.9127)">
            <stop offset="0.353" stop-color="#3A8EE6" />
            <stop offset="0.472" stop-color="#5C79F0" />
            <stop offset="0.669" stop-color="#9059FF" />
            <stop offset="1" stop-color="#C139E6" />
        </radialGradient>
        <radialGradient id="paint5_radial_18_5917" cx="0" cy="0" r="1"
            gradientUnits="userSpaceOnUse"
            gradientTransform="translate(15.2993 13.4508) rotate(-13.5916) scale(7.37771 8.63744)">
            <stop offset="0.206" stop-color="#9059FF" stop-opacity="0" />
            <stop offset="0.278" stop-color="#8C4FF3" stop-opacity="0.064" />
            <stop offset="0.747" stop-color="#7716A8" stop-opacity="0.45" />
            <stop offset="0.975" stop-color="#6E008B" stop-opacity="0.6" />
        </radialGradient>
        <radialGradient id="paint6_radial_18_5917" cx="0" cy="0" r="1"
            gradientUnits="userSpaceOnUse"
            gradientTransform="translate(13.5242 2.9397) scale(10.0105 10.0105)">
            <stop stop-color="#FFE226" />
            <stop offset="0.121" stop-color="#FFDB27" />
            <stop offset="0.295" stop-color="#FFC82A" />
            <stop offset="0.502" stop-color="#FFA930" />
            <stop offset="0.732" stop-color="#FF7E37" />
            <stop offset="0.792" stop-color="#FF7139" />
        </radialGradient>
        <radialGradient id="paint7_radial_18_5917" cx="0" cy="0" r="1"
            gradientUnits="userSpaceOnUse"
            gradientTransform="translate(21.4805 -3.56924) scale(42.7109 42.7109)">
            <stop offset="0.113" stop-color="#FFF44F" />
            <stop offset="0.456" stop-color="#FF980E" />
            <stop offset="0.622" stop-color="#FF5634" />
            <stop offset="0.716" stop-color="#FF3647" />
            <stop offset="0.904" stop-color="#E31587" />
        </radialGradient>
        <radialGradient id="paint8_radial_18_5917" cx="0" cy="0" r="1"
            gradientUnits="userSpaceOnUse"
            gradientTransform="translate(17.9304 -1.20157) rotate(83.976) scale(31.2992 20.5414)">
            <stop stop-color="#FFF44F" />
            <stop offset="0.06" stop-color="#FFE847" />
            <stop offset="0.168" stop-color="#FFC830" />
            <stop offset="0.304" stop-color="#FF980E" />
            <stop offset="0.356" stop-color="#FF8B16" />
            <stop offset="0.455" stop-color="#FF672A" />
            <stop offset="0.57" stop-color="#FF3647" />
            <stop offset="0.737" stop-color="#E31587" />
        </radialGradient>
        <radialGradient id="paint9_radial_18_5917" cx="0" cy="0" r="1"
            gradientUnits="userSpaceOnUse"
            gradientTransform="translate(13.5243 6.55665) scale(26.6608)">
            <stop offset="0.137" stop-color="#FFF44F" />
            <stop offset="0.48" stop-color="#FF980E" />
            <stop offset="0.592" stop-color="#FF5634" />
            <stop offset="0.655" stop-color="#FF3647" />
            <stop offset="0.904" stop-color="#E31587" />
        </radialGradient>
        <radialGradient id="paint10_radial_18_5917" cx="0" cy="0" r="1"
            gradientUnits="userSpaceOnUse"
            gradientTransform="translate(20.3964 8.00368) scale(29.1815 29.1815)">
            <stop offset="0.094" stop-color="#FFF44F" />
            <stop offset="0.231" stop-color="#FFE141" />
            <stop offset="0.509" stop-color="#FFAF1E" />
            <stop offset="0.626" stop-color="#FF980E" />
        </radialGradient>
        <linearGradient id="paint11_linear_18_5917" x1="25.3534" y1="5.13049" x2="5.55737"
            y2="24.9305" gradientUnits="userSpaceOnUse">
            <stop offset="0.167" stop-color="#FFF44F" stop-opacity="0.8" />
            <stop offset="0.266" stop-color="#FFF44F" stop-opacity="0.634" />
            <stop offset="0.489" stop-color="#FFF44F" stop-opacity="0.217" />
            <stop offset="0.6" stop-color="#FFF44F" stop-opacity="0" />
        </linearGradient>
    </defs>
</svg>
    