<svg width="659" height="789" viewBox="0 0 659 789" fill="none" xmlns="http://www.w3.org/2000/svg">
<g opacity="0.05">
<g opacity="0.0526316">
<path d="M-90.8858 636.659C-73.7457 659.462 -18.964 697.621 63.0418 667.829C165.549 630.588 205.194 531.873 296.684 480.688C364.21 442.91 545.655 386.202 649.988 448.865" stroke="white" stroke-width="1.45842"/>
<path d="M-90.8858 636.659C-73.7457 659.462 -18.964 697.621 63.0418 667.829C165.549 630.588 205.194 531.873 296.684 480.688C364.21 442.91 545.655 386.202 649.988 448.865" stroke="url(#paint0_linear_88_76)" stroke-width="1.45842"/>
</g>
<g opacity="0.105263">
<path d="M-107.792 588.852C-93.1292 613.323 -42.6362 656.999 42.0345 635.941C147.873 609.62 197.62 515.589 293.958 474.248C365.063 443.735 551.441 406.304 648.653 479.529" stroke="white" stroke-width="1.45842"/>
<path d="M-107.792 588.852C-93.1292 613.323 -42.6362 656.999 42.0345 635.941C147.873 609.62 197.62 515.589 293.958 474.248C365.063 443.735 551.441 406.304 648.653 479.529" stroke="url(#paint1_linear_88_76)" stroke-width="1.45842"/>
</g>
<g opacity="0.157895">
<path d="M-120.564 540.403C-108.54 566.272 -62.8887 614.987 23.5193 602.895C131.529 587.781 190.832 499.466 290.964 468.421C364.869 445.507 554.139 427.764 643.165 510.749" stroke="white" stroke-width="1.45842"/>
<path d="M-120.564 540.403C-108.54 566.272 -62.8887 614.987 23.5193 602.895C131.529 587.781 190.832 499.466 290.964 468.421C364.869 445.507 554.139 427.764 643.165 510.749" stroke="url(#paint2_linear_88_76)" stroke-width="1.45842"/>
</g>
<g opacity="0.210526">
<path d="M-129.158 491.743C-119.903 518.727 -79.5946 571.947 7.60392 568.954C116.602 565.212 184.812 483.58 287.64 463.172C363.535 448.109 553.623 450.247 633.487 542.083" stroke="white" stroke-width="1.45842"/>
<path d="M-129.158 491.743C-119.903 518.727 -79.5946 571.947 7.60392 568.954C116.602 565.212 184.812 483.58 287.64 463.172C363.535 448.109 553.623 450.247 633.487 542.083" stroke="url(#paint3_linear_88_76)" stroke-width="1.45842"/>
</g>
<g opacity="0.263158">
<path d="M-133.573 443.312C-127.19 471.116 -92.6651 528.257 -5.63139 534.395C103.161 542.068 179.53 468.012 283.928 458.465C360.982 451.418 549.805 473.413 619.631 573.094" stroke="white" stroke-width="1.45842"/>
<path d="M-133.573 443.312C-127.19 471.116 -92.6651 528.257 -5.63139 534.395C103.161 542.068 179.53 468.012 283.928 458.465C360.982 451.418 549.805 473.413 619.631 573.094" stroke="url(#paint4_linear_88_76)" stroke-width="1.45842"/>
</g>
<g opacity="0.315789">
<path d="M-133.857 395.546C-130.415 423.864 -102.052 484.302 -16.1371 499.504C91.2572 518.506 174.949 452.839 279.773 454.256C357.141 455.302 542.631 496.914 601.655 603.348" stroke="white" stroke-width="1.45842"/>
<path d="M-133.857 395.546C-130.415 423.864 -102.052 484.302 -16.1371 499.504C91.2572 518.506 174.949 452.839 279.773 454.256C357.141 455.302 542.631 496.914 601.655 603.348" stroke="url(#paint5_linear_88_76)" stroke-width="1.45842"/>
</g>
<g opacity="0.368421">
<path d="M-130.103 348.871C-129.64 377.394 -107.75 440.465 -23.8943 464.564C80.9253 494.688 171.022 438.129 275.124 450.496C351.96 459.623 532.083 520.396 579.659 632.417" stroke="white" stroke-width="1.45842"/>
<path d="M-130.103 348.871C-129.64 377.394 -107.75 440.465 -23.8943 464.564C80.9253 494.688 171.022 438.129 275.124 450.496C351.96 459.623 532.083 520.396 579.659 632.417" stroke="url(#paint6_linear_88_76)" stroke-width="1.45842"/>
</g>
<g opacity="0.421053">
<path d="M-122.446 303.705C-124.967 332.12 -109.789 397.134 -28.912 429.866C72.1846 470.782 167.7 423.95 269.939 447.131C345.399 464.24 518.184 543.508 553.79 659.888" stroke="white" stroke-width="1.45842"/>
<path d="M-122.446 303.705C-124.967 332.12 -109.789 397.134 -28.912 429.866C72.1846 470.782 167.7 423.95 269.939 447.131C345.399 464.24 518.184 543.508 553.79 659.888" stroke="url(#paint7_linear_88_76)" stroke-width="1.45842"/>
</g>
<g opacity="0.473684">
<path d="M-111.065 260.448C-116.542 288.444 -108.244 354.688 -31.2309 395.695C65.0351 446.954 164.922 410.363 264.179 444.103C337.437 469.006 500.989 565.901 524.235 685.366" stroke="white" stroke-width="1.45842"/>
<path d="M-111.065 260.448C-116.542 288.444 -108.244 354.688 -31.2309 395.695C65.0351 446.954 164.922 410.363 264.179 444.103C337.437 469.006 500.989 565.901 524.235 685.366" stroke="url(#paint8_linear_88_76)" stroke-width="1.45842"/>
</g>
<g opacity="0.526316">
<path d="M-96.1806 219.477C-104.554 246.747 -103.226 313.496 -30.9211 362.328C59.4595 423.369 162.624 397.42 257.81 441.35C328.064 473.774 480.592 587.234 491.223 708.474" stroke="white" stroke-width="1.45842"/>
<path d="M-96.1806 219.477C-104.554 246.747 -103.226 313.496 -30.9211 362.328C59.4595 423.369 162.624 397.42 257.81 441.35C328.064 473.774 480.592 587.234 491.223 708.474" stroke="url(#paint9_linear_88_76)" stroke-width="1.45842"/>
</g>
<g opacity="0.578947">
<path d="M-78.0504 181.146C-89.2287 207.392 -94.8845 273.913 -28.0805 330.036C55.4245 400.19 160.737 385.166 250.809 438.806C317.289 478.396 457.121 607.178 455.021 728.865" stroke="white" stroke-width="1.45842"/>
<path d="M-78.0504 181.146C-89.2287 207.392 -94.8845 273.913 -28.0805 330.036C55.4245 400.19 160.737 385.166 250.809 438.806C317.289 478.396 457.121 607.178 455.021 728.865" stroke="url(#paint10_linear_88_76)" stroke-width="1.45842"/>
</g>
<g opacity="0.631579">
<path d="M-56.9681 145.782C-70.8286 170.715 -83.4068 236.282 -22.8352 299.08C52.8793 377.578 159.185 373.645 243.157 436.405C305.134 482.728 430.74 625.421 415.931 746.221" stroke="white" stroke-width="1.45842"/>
<path d="M-56.9681 145.782C-70.8286 170.715 -83.4068 236.282 -22.8352 299.08C52.8793 377.578 159.185 373.645 243.157 436.405C305.134 482.728 430.74 625.421 415.931 746.221" stroke="url(#paint11_linear_88_76)" stroke-width="1.45842"/>
</g>
<g opacity="0.684211">
<path d="M-33.261 113.675C-49.6519 137.023 -69.0147 200.916 -15.3391 269.701C51.7553 355.684 157.89 362.884 234.841 434.078C291.637 486.625 401.639 641.666 374.284 760.257" stroke="white" stroke-width="1.45842"/>
<path d="M-33.261 113.675C-49.6519 137.023 -69.0147 200.916 -15.3391 269.701C51.7553 355.684 157.89 362.884 234.841 434.078C291.637 486.625 401.639 641.666 374.284 760.257" stroke="url(#paint12_linear_88_76)" stroke-width="1.45842"/>
</g>
<g opacity="0.736842">
<path d="M-7.28315 85.0822C-26.0247 106.589 -51.96 168.107 -5.76855 242.127C51.9708 334.651 156.771 352.906 225.859 431.754C276.852 489.95 370.044 655.64 330.443 770.722" stroke="white" stroke-width="1.45842"/>
<path d="M-7.28315 85.0822C-26.0247 106.589 -51.96 168.107 -5.76855 242.127C51.9708 334.651 156.771 352.906 225.859 431.754C276.852 489.95 370.044 655.64 330.443 770.722" stroke="url(#paint13_linear_88_76)" stroke-width="1.45842"/>
</g>
<g opacity="0.789474">
<path d="M20.587 60.2229C-0.299995 79.6527 -32.5236 138.123 5.67765 216.565C53.4292 314.618 155.747 343.728 216.215 429.366C260.845 492.573 336.208 667.096 284.795 777.408" stroke="white" stroke-width="1.45842"/>
<path d="M20.587 60.2229C-0.299995 79.6527 -32.5236 138.123 5.67765 216.565C53.4292 314.618 155.747 343.728 216.215 429.366C260.845 492.573 336.208 667.096 284.795 777.408" stroke="url(#paint14_linear_88_76)" stroke-width="1.45842"/>
</g>
<g opacity="0.842105">
<path d="M49.9463 39.2721C27.1427 56.4123 -11.0162 111.194 18.7764 193.2C56.017 295.707 154.732 335.352 205.917 426.842C243.695 494.368 300.403 675.812 237.74 780.146" stroke="white" stroke-width="1.45842"/>
<path d="M49.9463 39.2721C27.1427 56.4123 -11.0162 111.194 18.7764 193.2C56.017 295.707 154.732 335.352 205.917 426.842C243.695 494.368 300.403 675.812 237.74 780.146" stroke="url(#paint15_linear_88_76)" stroke-width="1.45842"/>
</g>
<g opacity="0.894737">
<path d="M80.3794 22.3659C55.9092 37.0285 12.2331 87.5215 33.2904 172.192C59.6122 278.031 153.642 327.777 194.984 424.116C225.497 495.221 262.927 681.599 189.702 778.811" stroke="white" stroke-width="1.45842"/>
<path d="M80.3794 22.3659C55.9092 37.0285 12.2331 87.5215 33.2904 172.192C59.6122 278.031 153.642 327.777 194.984 424.116C225.497 495.221 262.927 681.599 189.702 778.811" stroke="url(#paint16_linear_88_76)" stroke-width="1.45842"/>
</g>
<g opacity="0.947368">
<path d="M111.456 9.59363C85.5876 21.6181 36.8728 67.269 48.9643 153.677C64.0787 261.687 152.394 320.99 183.439 421.122C206.352 495.027 224.096 684.297 141.11 773.322" stroke="white" stroke-width="1.45842"/>
<path d="M111.456 9.59363C85.5876 21.6181 36.8728 67.269 48.9643 153.677C64.0787 261.687 152.394 320.99 183.439 421.122C206.352 495.027 224.096 684.297 141.11 773.322" stroke="url(#paint17_linear_88_76)" stroke-width="1.45842"/>
</g>
<path d="M142.744 1C115.76 10.2546 62.5405 50.5633 65.5337 137.762C69.2752 246.76 150.908 314.97 171.316 417.798C186.378 493.693 184.241 683.781 92.4044 763.645" stroke="white" stroke-width="1.45842"/>
<path d="M142.744 1C115.76 10.2546 62.5405 50.5633 65.5337 137.762C69.2752 246.76 150.908 314.97 171.316 417.798C186.378 493.693 184.241 683.781 92.4044 763.645" stroke="url(#paint18_linear_88_76)" stroke-width="1.45842"/>
</g>
<defs>
<linearGradient id="paint0_linear_88_76" x1="295.67" y1="592.37" x2="260.776" y2="484.977" gradientUnits="userSpaceOnUse">
<stop stop-color="#3DB6F8"/>
<stop offset="0.5" stop-color="#5B67D5"/>
<stop offset="1" stop-color="#A76BF3"/>
</linearGradient>
<linearGradient id="paint1_linear_88_76" x1="281.276" y1="585.213" x2="257.798" y2="474.76" gradientUnits="userSpaceOnUse">
<stop stop-color="#3DB6F8"/>
<stop offset="0.5" stop-color="#5B67D5"/>
<stop offset="1" stop-color="#A76BF3"/>
</linearGradient>
<linearGradient id="paint2_linear_88_76" x1="266.753" y1="577.452" x2="254.949" y2="465.151" gradientUnits="userSpaceOnUse">
<stop stop-color="#3DB6F8"/>
<stop offset="0.5" stop-color="#5B67D5"/>
<stop offset="1" stop-color="#A76BF3"/>
</linearGradient>
<linearGradient id="paint3_linear_88_76" x1="252.164" y1="569.075" x2="252.164" y2="456.155" gradientUnits="userSpaceOnUse">
<stop stop-color="#3DB6F8"/>
<stop offset="0.5" stop-color="#5B67D5"/>
<stop offset="1" stop-color="#A76BF3"/>
</linearGradient>
<linearGradient id="paint4_linear_88_76" x1="237.577" y1="560.079" x2="249.38" y2="447.778" gradientUnits="userSpaceOnUse">
<stop stop-color="#3DB6F8"/>
<stop offset="0.5" stop-color="#5B67D5"/>
<stop offset="1" stop-color="#A76BF3"/>
</linearGradient>
<linearGradient id="paint5_linear_88_76" x1="223.054" y1="550.469" x2="246.531" y2="440.017" gradientUnits="userSpaceOnUse">
<stop stop-color="#3DB6F8"/>
<stop offset="0.5" stop-color="#5B67D5"/>
<stop offset="1" stop-color="#A76BF3"/>
</linearGradient>
<linearGradient id="paint6_linear_88_76" x1="208.659" y1="540.253" x2="243.553" y2="432.859" gradientUnits="userSpaceOnUse">
<stop stop-color="#3DB6F8"/>
<stop offset="0.5" stop-color="#5B67D5"/>
<stop offset="1" stop-color="#A76BF3"/>
</linearGradient>
<linearGradient id="paint7_linear_88_76" x1="194.456" y1="529.449" x2="240.385" y2="426.291" gradientUnits="userSpaceOnUse">
<stop stop-color="#3DB6F8"/>
<stop offset="0.5" stop-color="#5B67D5"/>
<stop offset="1" stop-color="#A76BF3"/>
</linearGradient>
<linearGradient id="paint8_linear_88_76" x1="180.504" y1="518.08" x2="236.964" y2="420.288" gradientUnits="userSpaceOnUse">
<stop stop-color="#3DB6F8"/>
<stop offset="0.5" stop-color="#5B67D5"/>
<stop offset="1" stop-color="#A76BF3"/>
</linearGradient>
<linearGradient id="paint9_linear_88_76" x1="166.861" y1="506.175" x2="233.234" y2="414.821" gradientUnits="userSpaceOnUse">
<stop stop-color="#3DB6F8"/>
<stop offset="0.5" stop-color="#5B67D5"/>
<stop offset="1" stop-color="#A76BF3"/>
</linearGradient>
<linearGradient id="paint10_linear_88_76" x1="153.582" y1="493.769" x2="229.141" y2="409.853" gradientUnits="userSpaceOnUse">
<stop stop-color="#3DB6F8"/>
<stop offset="0.5" stop-color="#5B67D5"/>
<stop offset="1" stop-color="#A76BF3"/>
</linearGradient>
<linearGradient id="paint11_linear_88_76" x1="140.718" y1="480.905" x2="224.634" y2="405.347" gradientUnits="userSpaceOnUse">
<stop stop-color="#3DB6F8"/>
<stop offset="0.5" stop-color="#5B67D5"/>
<stop offset="1" stop-color="#A76BF3"/>
</linearGradient>
<linearGradient id="paint12_linear_88_76" x1="128.312" y1="467.626" x2="219.666" y2="401.253" gradientUnits="userSpaceOnUse">
<stop stop-color="#3DB6F8"/>
<stop offset="0.5" stop-color="#5B67D5"/>
<stop offset="1" stop-color="#A76BF3"/>
</linearGradient>
<linearGradient id="paint13_linear_88_76" x1="116.407" y1="453.983" x2="214.198" y2="397.523" gradientUnits="userSpaceOnUse">
<stop stop-color="#3DB6F8"/>
<stop offset="0.5" stop-color="#5B67D5"/>
<stop offset="1" stop-color="#A76BF3"/>
</linearGradient>
<linearGradient id="paint14_linear_88_76" x1="105.039" y1="440.032" x2="208.196" y2="394.103" gradientUnits="userSpaceOnUse">
<stop stop-color="#3DB6F8"/>
<stop offset="0.5" stop-color="#5B67D5"/>
<stop offset="1" stop-color="#A76BF3"/>
</linearGradient>
<linearGradient id="paint15_linear_88_76" x1="94.2345" y1="425.828" x2="201.628" y2="390.934" gradientUnits="userSpaceOnUse">
<stop stop-color="#3DB6F8"/>
<stop offset="0.5" stop-color="#5B67D5"/>
<stop offset="1" stop-color="#A76BF3"/>
</linearGradient>
<linearGradient id="paint16_linear_88_76" x1="84.0189" y1="411.434" x2="194.471" y2="387.956" gradientUnits="userSpaceOnUse">
<stop stop-color="#3DB6F8"/>
<stop offset="0.5" stop-color="#5B67D5"/>
<stop offset="1" stop-color="#A76BF3"/>
</linearGradient>
<linearGradient id="paint17_linear_88_76" x1="74.4074" y1="396.91" x2="186.709" y2="385.107" gradientUnits="userSpaceOnUse">
<stop stop-color="#3DB6F8"/>
<stop offset="0.5" stop-color="#5B67D5"/>
<stop offset="1" stop-color="#A76BF3"/>
</linearGradient>
<linearGradient id="paint18_linear_88_76" x1="65.4126" y1="382.322" x2="178.333" y2="382.322" gradientUnits="userSpaceOnUse">
<stop stop-color="#3DB6F8"/>
<stop offset="0.5" stop-color="#5B67D5"/>
<stop offset="1" stop-color="#A76BF3"/>
</linearGradient>
</defs>
</svg>
