<svg width="30" height="29" viewBox="0 0 30 29" fill="none" xmlns="http://www.w3.org/2000/svg">
    <path fill-rule="evenodd" clip-rule="evenodd"
        d="M4.22656 10.8637C4.22656 8.90367 4.22656 7.92367 4.60756 7.17467C4.94316 6.51587 5.47876 5.98027 6.13756 5.64467C6.88656 5.26367 7.86656 5.26367 9.82656 5.26367H20.6266C22.5866 5.26367 23.5666 5.26367 24.3156 5.64467C24.9744 5.98027 25.51 6.51587 25.8456 7.17467C26.2266 7.92367 26.2266 8.90367 26.2266 10.8637V20.2637H27.2266C27.4918 20.2637 27.7461 20.369 27.9337 20.5566C28.1212 20.7441 28.2266 20.9985 28.2266 21.2637C28.2266 21.5289 28.1212 21.7832 27.9337 21.9708C27.7461 22.1583 27.4918 22.2637 27.2266 22.2637H3.22656C2.96135 22.2637 2.70699 22.1583 2.51946 21.9708C2.33192 21.7832 2.22656 21.5289 2.22656 21.2637C2.22656 20.9985 2.33192 20.7441 2.51946 20.5566C2.70699 20.369 2.96135 20.2637 3.22656 20.2637H4.22656V10.8637ZM6.22656 20.2637H24.2266V9.66367C24.2266 8.82367 24.2266 8.40367 24.0636 8.08267C23.9197 7.80018 23.6901 7.57053 23.4076 7.42667C23.0876 7.26367 22.6676 7.26367 21.8266 7.26367H8.62656C7.78656 7.26367 7.36656 7.26367 7.04556 7.42667C6.76307 7.57053 6.53342 7.80018 6.38956 8.08267C6.22656 8.40267 6.22656 8.82267 6.22656 9.66367V20.2637Z"
        fill="black" />
</svg>
    