<svg width="29" height="29" viewBox="0 0 29 29" fill="none" xmlns="http://www.w3.org/2000/svg">
    <path
        d="M14.5063 28.2637C22.2383 28.2637 28.5063 21.9957 28.5063 14.2637C28.5063 6.53167 22.2383 0.263672 14.5063 0.263672C6.77435 0.263672 0.506348 6.53167 0.506348 14.2637C0.506348 21.9957 6.77435 28.2637 14.5063 28.2637Z"
        fill="url(#paint0_linear_18_5936)" />
    <path fill-rule="evenodd" clip-rule="evenodd"
        d="M23.5194 8.48852L16.0264 15.8165V24.9295C16.0264 25.0935 15.3154 25.2245 14.5064 25.2345C13.7294 25.2245 12.9854 25.0935 12.9854 24.9295V15.8165L5.49543 8.48952C5.37543 8.36852 5.75743 7.79952 6.34843 7.20952C6.93843 6.61852 7.51843 6.23652 7.62743 6.35652L14.4964 13.0605L21.3644 6.35452C21.4854 6.23452 22.0534 6.61752 22.6444 7.20752C23.2354 7.79952 23.6284 8.36752 23.5194 8.48752V8.48852Z"
        fill="#EC1C24" />
    <defs>
        <linearGradient id="paint0_linear_18_5936" x1="1400.51" y1="0.263672" x2="1400.51"
            y2="2800.26" gradientUnits="userSpaceOnUse">
            <stop stop-color="white" />
            <stop offset="1" stop-color="#EDEDEE" />
        </linearGradient>
    </defs>
</svg>
    