<svg width="80" height="80" viewBox="0 0 80 80" fill="none" xmlns="http://www.w3.org/2000/svg">
<g opacity="0.3">
<path d="M80 39.9715C64.3081 41.397 55.2924 42.7085 49.7575 47.0421C43.2525 52.1169 41.7118 61.4113 40 80C38.2311 60.727 36.6334 51.4897 29.5007 46.5289C23.9658 42.6515 15.0071 41.397 0 40.0285C15.6348 38.603 24.7076 37.2915 30.1855 33.015C36.7475 27.8831 38.2882 18.6458 40 0C41.5977 17.1632 43.0243 26.3435 48.331 31.6465C53.6377 36.9494 62.8816 38.4319 80 39.9715Z" fill="white"/>
<path d="M80 39.9715C64.3081 41.397 55.2924 42.7085 49.7575 47.0421C43.2525 52.1169 41.7118 61.4113 40 80C38.2311 60.727 36.6334 51.4897 29.5007 46.5289C23.9658 42.6515 15.0071 41.397 0 40.0285C15.6348 38.603 24.7076 37.2915 30.1855 33.015C36.7475 27.8831 38.2882 18.6458 40 0C41.5977 17.1632 43.0243 26.3435 48.331 31.6465C53.6377 36.9494 62.8816 38.4319 80 39.9715Z" fill="url(#paint0_linear_88_111)"/>
</g>
<defs>
<linearGradient id="paint0_linear_88_111" x1="0" y1="40" x2="80" y2="40" gradientUnits="userSpaceOnUse">
<stop stop-color="#3DB6F8"/>
<stop offset="0.5" stop-color="#5B67D5"/>
<stop offset="1" stop-color="#A76BF3"/>
</linearGradient>
</defs>
</svg>
