<svg width="1280" height="439" viewBox="0 0 1280 439" fill="none" xmlns="http://www.w3.org/2000/svg">
    <g clip-path="url(#clip0_43_7817)">
        <rect width="4831.59" height="87" transform="translate(-226.168 399.595) rotate(-14.5836)"
            fill="white" />
        <path
            d="M-138.559 406.315L-131.399 433.836L-136.578 435.183L-143.738 407.662L-138.559 406.315ZM-130.015 404.092L-128.948 408.193L-151.12 413.962L-152.187 409.86L-130.015 404.092ZM-99.4665 410.089L-99.0976 411.507C-98.5567 413.586 -98.347 415.529 -98.4687 417.337C-98.5937 419.132 -99.0157 420.742 -99.7348 422.167C-100.454 423.592 -101.439 424.796 -102.689 425.781C-103.94 426.766 -105.429 427.483 -107.155 427.932C-108.856 428.374 -110.499 428.472 -112.084 428.225C-113.656 427.975 -115.109 427.405 -116.444 426.514C-117.779 425.624 -118.945 424.427 -119.941 422.924C-120.941 421.408 -121.712 419.61 -122.253 417.531L-122.621 416.113C-123.166 414.022 -123.369 412.076 -123.231 410.278C-123.094 408.48 -122.665 406.868 -121.946 405.443C-121.231 404.006 -120.247 402.795 -118.997 401.81C-117.733 400.822 -116.251 400.107 -114.55 399.664C-112.824 399.215 -111.174 399.116 -109.602 399.366C-108.03 399.616 -106.582 400.195 -105.256 401.101C-103.921 401.991 -102.762 403.19 -101.778 404.696C-100.781 406.2 -100.011 407.997 -99.4665 410.089ZM-104.352 412.874L-104.731 411.418C-105.121 409.919 -105.602 408.638 -106.175 407.576C-106.75 406.501 -107.411 405.644 -108.156 405.004C-108.901 404.363 -109.721 403.951 -110.617 403.767C-111.516 403.57 -112.463 403.602 -113.458 403.861C-114.466 404.123 -115.309 404.557 -115.985 405.164C-116.652 405.754 -117.155 406.511 -117.493 407.433C-117.832 408.355 -117.997 409.428 -117.988 410.65C-117.971 411.856 -117.767 413.209 -117.376 414.708L-116.998 416.164C-116.611 417.651 -116.13 418.932 -115.554 420.006C-114.966 421.077 -114.298 421.94 -113.549 422.592C-112.792 423.23 -111.97 423.648 -111.083 423.848C-110.197 424.048 -109.25 424.017 -108.242 423.755C-107.234 423.492 -106.392 423.058 -105.715 422.451C-105.039 421.845 -104.538 421.082 -104.212 420.163C-103.876 419.228 -103.719 418.151 -103.74 416.933C-103.762 415.714 -103.965 414.361 -104.352 412.874ZM-74.4096 389.624L-67.2493 417.146L-72.4662 418.503L-89.1336 402.456L-84.1666 421.547L-89.3646 422.9L-96.5249 395.378L-91.3269 394.026L-74.6169 410.082L-79.5888 390.972L-74.4096 389.624ZM-61.9835 386.391L-54.8231 413.913L-60.0212 415.265L-67.1815 387.744L-61.9835 386.391ZM-45.4632 382.093L-53.0102 398.386L-57.5678 406.776L-59.8071 401.97L-56.9021 395.14L-51.8331 383.751L-45.4632 382.093ZM-44.0868 411.119L-56.0034 400.456L-53.155 396.123L-37.9059 409.511L-44.0868 411.119ZM-16.3727 399.55L-15.3104 403.633L-29.9406 407.439L-31.0028 403.356L-16.3727 399.55ZM-35.5132 379.505L-28.3528 407.026L-33.5508 408.378L-40.7112 380.857L-35.5132 379.505ZM-21.4243 387.968L-20.3866 391.956L-33.1076 395.266L-34.1453 391.278L-21.4243 387.968ZM-22.5275 376.126L-21.4603 380.228L-36.0337 384.019L-37.1009 379.918L-22.5275 376.126ZM7.41356 393.361L8.47582 397.444L-6.15431 401.25L-7.21656 397.167L7.41356 393.361ZM-11.7269 373.316L-4.56655 400.837L-9.76459 402.19L-16.9249 374.668L-11.7269 373.316ZM2.36197 381.779L3.39964 385.768L-9.32139 389.077L-10.3591 385.089L2.36197 381.779ZM1.25875 369.937L2.32592 374.039L-12.2475 377.831L-13.3147 373.729L1.25875 369.937ZM21.9954 383.21L14.9072 385.054L13.8449 380.971L20.9331 379.127C22.0925 378.826 22.9821 378.392 23.602 377.827C24.2312 377.247 24.6291 376.578 24.7956 375.822C24.9588 375.053 24.9273 374.233 24.701 373.364C24.4814 372.52 24.1063 371.776 23.576 371.134C23.0456 370.492 22.3559 370.039 21.507 369.775C20.6707 369.508 19.6729 369.526 18.5136 369.828L13.1265 371.229L19.2197 394.649L14.0217 396.001L6.8613 368.48L17.4464 365.726C19.5886 365.168 21.5158 365.077 23.228 365.453C24.9494 365.812 26.3825 366.563 27.5272 367.704C28.6812 368.83 29.4812 370.25 29.927 371.964C30.3893 373.741 30.3844 375.377 29.9124 376.872C29.4529 378.364 28.5509 379.655 27.2065 380.744C25.8747 381.831 24.1376 382.653 21.9954 383.21ZM57.9726 380.207L59.0348 384.29L44.4047 388.096L43.3424 384.013L57.9726 380.207ZM38.8321 360.162L45.9925 387.683L40.7944 389.035L33.6341 361.514L38.8321 360.162ZM52.921 368.625L53.9586 372.614L41.2376 375.923L40.2 371.935L52.921 368.625ZM51.8178 356.783L52.8849 360.885L38.3115 364.677L37.2443 360.575L51.8178 356.783ZM57.4203 355.326L67.4195 352.724C69.5113 352.18 71.3889 352.028 73.0524 352.268C74.7159 352.507 76.1115 353.14 77.2393 354.165C78.3671 355.19 79.1654 356.604 79.6342 358.406C80.0047 359.83 80.074 361.13 79.842 362.307C79.6101 363.484 79.126 364.545 78.3897 365.49C77.666 366.432 76.7391 367.265 75.6091 367.99L74.1999 369.244L65.3727 371.541L64.2677 367.449L70.8645 365.733C71.9357 365.454 72.7749 365.034 73.3822 364.472C73.9895 363.911 74.3827 363.25 74.5618 362.49C74.7534 361.727 74.7378 360.917 74.5149 360.061C74.2755 359.141 73.8926 358.393 73.366 357.817C72.8361 357.228 72.1645 356.844 71.3511 356.666C70.5378 356.487 69.5829 356.541 68.4866 356.826L63.6855 358.075L69.7787 381.494L64.5807 382.847L57.4203 355.326ZM80.1181 378.804L70.5417 368.138L76.0373 366.688L85.6253 377.089L85.6942 377.354L80.1181 378.804Z"
            fill="#0098EA" />
        <path
            d="M133.341 370.505C133.171 370.53 132.99 370.514 132.818 370.453C132.318 370.275 132.018 369.76 132.112 369.235L134.642 354.883L126.172 356.114C125.77 356.172 125.371 356.003 125.131 355.674C124.894 355.345 124.857 354.912 125.038 354.548L136.854 330.783C137.086 330.317 137.623 330.085 138.119 330.216C138.622 330.354 138.957 330.828 138.92 331.347L137.887 345.592L146.508 344.339C146.918 344.279 147.328 344.458 147.565 344.801C147.8 345.143 147.819 345.59 147.616 345.953L134.135 369.96C133.966 370.264 133.667 370.458 133.341 370.505ZM127.92 353.655L135.823 352.506C136.17 352.456 136.518 352.575 136.762 352.826C137.006 353.077 137.114 353.43 137.052 353.776L135.372 363.3L144.628 346.817L136.857 347.947C136.531 347.994 136.199 347.89 135.957 347.665C135.714 347.44 135.588 347.117 135.611 346.787L136.342 336.713L127.92 353.655Z"
            fill="#0098EA" />
        <path
            d="M202.066 333.979L195.035 335.808L194.043 332.151L200.073 330.582C201.106 330.313 201.931 329.944 202.549 329.474C203.167 329.004 203.58 328.445 203.788 327.799C204.01 327.15 204.017 326.428 203.81 325.634C203.581 324.752 203.224 324.078 202.739 323.612C202.267 323.143 201.646 322.874 200.875 322.806C200.1 322.724 199.171 322.825 198.087 323.107L193.815 324.218L199.909 347.638L194.711 348.99L187.55 321.469L197.02 319.005C198.583 318.599 200.014 318.388 201.315 318.372C202.626 318.341 203.79 318.522 204.807 318.917C205.825 319.311 206.675 319.917 207.359 320.735C208.055 321.549 208.571 322.599 208.905 323.885C209.2 325.019 209.208 326.134 208.928 327.229C208.657 328.308 208.057 329.285 207.127 330.16C206.21 331.031 204.938 331.725 203.31 332.243L202.066 333.979ZM205.031 346.305L196.695 348.474L197.807 343.826L203.969 342.222C205.002 341.953 205.808 341.562 206.388 341.048C206.98 340.531 207.362 339.933 207.536 339.256C207.719 338.563 207.709 337.825 207.505 337.044C207.282 336.187 206.938 335.483 206.471 334.931C206.018 334.377 205.425 334.013 204.694 333.84C203.975 333.664 203.099 333.71 202.066 333.979L196.66 335.385L195.744 331.708L202.624 329.918L204.184 331.026C205.775 330.626 207.149 330.605 208.305 330.963C209.473 331.318 210.424 331.919 211.155 332.764C211.886 333.61 212.398 334.594 212.689 335.715C213.148 337.48 213.149 339.06 212.692 340.457C212.248 341.851 211.373 343.041 210.069 344.026C208.777 345.008 207.098 345.767 205.031 346.305ZM226.089 315.902L224.319 341.287L218.818 342.718L221.94 312.522L225.456 311.607L226.089 315.902ZM238.722 337.54L224.766 316.246L223.207 312.192L226.742 311.272L244.241 336.104L238.722 337.54ZM235.702 327.407L236.769 331.509L222.007 335.35L220.94 331.248L235.702 327.407ZM251.284 304.887L258.444 332.408L253.265 333.756L246.105 306.235L251.284 304.887ZM259.828 302.664L260.895 306.766L238.723 312.535L237.656 308.433L259.828 302.664ZM277.338 298.108L284.499 325.63L279.32 326.977L272.159 299.456L277.338 298.108ZM285.882 295.885L286.949 299.987L264.777 305.756L263.71 301.654L285.882 295.885ZM315.615 313.175L316.677 317.258L302.047 321.064L300.985 316.981L315.615 313.175ZM296.475 293.13L303.635 320.651L298.437 322.003L291.277 294.482L296.475 293.13ZM310.564 301.593L311.601 305.581L298.88 308.891L297.843 304.903L310.564 301.593ZM309.46 289.751L310.528 293.853L295.954 297.644L294.887 293.543L309.46 289.751ZM315.063 288.293L325.062 285.692C327.154 285.148 329.032 284.995 330.695 285.235C332.359 285.475 333.754 286.108 334.882 287.133C336.01 288.158 336.808 289.572 337.277 291.374C337.647 292.797 337.717 294.098 337.485 295.275C337.253 296.452 336.769 297.513 336.032 298.458C335.309 299.4 334.382 300.233 333.252 300.958L331.843 302.212L323.015 304.509L321.91 300.417L328.507 298.701C329.578 298.422 330.417 298.002 331.025 297.44C331.632 296.878 332.025 296.218 332.204 295.458C332.396 294.695 332.38 293.885 332.157 293.028C331.918 292.108 331.535 291.36 331.009 290.784C330.479 290.196 329.807 289.812 328.994 289.634C328.18 289.455 327.226 289.508 326.129 289.794L321.328 291.043L327.421 314.462L322.223 315.815L315.063 288.293ZM337.761 311.772L328.184 301.105L333.68 299.655L343.268 310.057L343.337 310.321L337.761 311.772ZM343.915 280.787L353.303 292.048L356.05 277.63L361.758 276.144L357.149 295.971L359.77 306.046L354.497 307.418L351.875 297.343L338.169 282.282L343.915 280.787Z"
            fill="#0098EA" />
        <path
            d="M415.133 297.19C414.962 297.214 414.781 297.199 414.609 297.138C414.109 296.959 413.81 296.445 413.903 295.92L416.434 281.567L407.963 282.798C407.562 282.857 407.163 282.688 406.923 282.359C406.685 282.03 406.649 281.596 406.83 281.233L418.645 257.468C418.878 257.002 419.415 256.769 419.91 256.9C420.413 257.039 420.749 257.512 420.712 258.032L419.678 272.277L428.299 271.024C428.71 270.964 429.119 271.143 429.356 271.485C429.591 271.828 429.61 272.275 429.407 272.637L415.927 296.644C415.757 296.949 415.459 297.142 415.133 297.19ZM409.712 280.34L417.614 279.191C417.962 279.14 418.31 279.26 418.553 279.511C418.797 279.762 418.906 280.114 418.844 280.461L417.163 289.985L426.42 273.502L418.649 274.631C418.323 274.678 417.99 274.575 417.748 274.35C417.506 274.125 417.38 273.801 417.402 273.472L418.134 263.398L409.712 280.34Z"
            fill="#0098EA" />
        <path
            d="M481.156 245.08L488.316 272.601L483.137 273.949L475.977 246.428L481.156 245.08ZM489.699 242.857L490.767 246.959L468.595 252.728L467.527 248.626L489.699 242.857ZM520.248 248.855L520.617 250.272C521.158 252.351 521.368 254.295 521.246 256.103C521.121 257.898 520.699 259.508 519.98 260.932C519.261 262.357 518.276 263.562 517.025 264.547C515.775 265.531 514.286 266.248 512.56 266.697C510.859 267.14 509.216 267.238 507.631 266.991C506.059 266.741 504.606 266.17 503.271 265.28C501.936 264.389 500.77 263.192 499.773 261.689C498.774 260.173 498.003 258.376 497.462 256.297L497.093 254.879C496.549 252.787 496.346 250.842 496.483 249.044C496.621 247.245 497.049 245.634 497.768 244.209C498.484 242.772 499.467 241.56 500.718 240.576C501.981 239.588 503.464 238.873 505.165 238.43C506.891 237.981 508.54 237.881 510.112 238.132C511.684 238.382 513.133 238.96 514.459 239.867C515.794 240.757 516.953 241.956 517.937 243.462C518.934 244.965 519.704 246.763 520.248 248.855ZM515.362 251.639L514.984 250.184C514.594 248.684 514.112 247.404 513.54 246.342C512.965 245.267 512.304 244.41 511.559 243.769C510.814 243.129 509.994 242.717 509.098 242.533C508.199 242.336 507.252 242.367 506.257 242.626C505.249 242.888 504.406 243.323 503.73 243.929C503.063 244.52 502.56 245.276 502.222 246.199C501.883 247.121 501.718 248.193 501.726 249.415C501.744 250.622 501.948 251.974 502.338 253.474L502.717 254.929C503.104 256.416 503.585 257.697 504.161 258.772C504.749 259.843 505.417 260.705 506.166 261.358C506.923 261.995 507.745 262.414 508.631 262.614C509.518 262.814 510.465 262.782 511.473 262.52C512.481 262.258 513.323 261.823 514 261.217C514.676 260.61 515.177 259.848 515.503 258.929C515.838 257.994 515.996 256.917 515.974 255.698C515.953 254.479 515.749 253.126 515.362 251.639ZM545.305 228.39L552.466 255.911L547.249 257.269L530.581 241.222L535.548 260.313L530.35 261.665L523.19 234.144L528.388 232.792L545.098 248.847L540.126 229.738L545.305 228.39ZM557.731 225.157L564.892 252.678L559.694 254.031L552.533 226.509L557.731 225.157ZM574.252 220.859L566.705 237.151L562.147 245.542L559.908 240.736L562.813 233.906L567.882 222.516L574.252 220.859ZM575.628 249.885L563.711 239.222L566.56 234.888L581.809 248.277L575.628 249.885ZM603.342 238.315L604.404 242.398L589.774 246.205L588.712 242.122L603.342 238.315ZM584.202 218.27L591.362 245.791L586.164 247.144L579.004 219.623L584.202 218.27ZM598.291 226.734L599.328 230.722L586.607 234.032L585.57 230.043L598.291 226.734ZM597.187 214.892L598.255 218.993L583.681 222.785L582.614 218.683L597.187 214.892ZM627.128 232.127L628.191 236.21L613.561 240.016L612.498 235.933L627.128 232.127ZM607.988 212.082L615.148 239.603L609.95 240.955L602.79 213.434L607.988 212.082ZM622.077 220.545L623.114 224.533L610.393 227.843L609.356 223.855L622.077 220.545ZM620.974 208.703L622.041 212.805L607.467 216.596L606.4 212.495L620.974 208.703ZM641.71 221.976L634.622 223.82L633.56 219.737L640.648 217.893C641.807 217.591 642.697 217.158 643.317 216.593C643.946 216.012 644.344 215.344 644.51 214.587C644.674 213.818 644.642 212.999 644.416 212.13C644.196 211.285 643.821 210.542 643.291 209.9C642.76 209.257 642.071 208.804 641.222 208.541C640.386 208.274 639.388 208.291 638.228 208.593L632.841 209.995L638.935 233.414L633.736 234.767L626.576 207.245L637.161 204.491C639.303 203.934 641.231 203.843 642.943 204.218C644.664 204.578 646.097 205.328 647.242 206.47C648.396 207.596 649.196 209.016 649.642 210.73C650.104 212.506 650.099 214.142 649.627 215.637C649.168 217.129 648.266 218.42 646.921 219.51C645.589 220.596 643.852 221.418 641.71 221.976ZM677.687 218.973L678.75 223.055L664.12 226.862L663.057 222.779L677.687 218.973ZM658.547 198.927L665.707 226.449L660.509 227.801L653.349 200.28L658.547 198.927ZM672.636 207.391L673.673 211.379L660.952 214.689L659.915 210.701L672.636 207.391ZM671.533 195.549L672.6 199.651L658.026 203.442L656.959 199.34L671.533 195.549ZM677.135 194.091L687.134 191.49C689.226 190.945 691.104 190.793 692.767 191.033C694.431 191.273 695.826 191.906 696.954 192.931C698.082 193.956 698.88 195.369 699.349 197.171C699.72 198.595 699.789 199.896 699.557 201.073C699.325 202.25 698.841 203.311 698.105 204.256C697.381 205.198 696.454 206.031 695.324 206.755L693.915 208.01L685.088 210.307L683.983 206.215L690.579 204.498C691.65 204.22 692.49 203.8 693.097 203.238C693.704 202.676 694.098 202.016 694.277 201.256C694.468 200.493 694.453 199.683 694.23 198.826C693.99 197.906 693.607 197.158 693.081 196.582C692.551 195.994 691.879 195.61 691.066 195.431C690.253 195.253 689.298 195.306 688.201 195.591L683.4 196.841L689.494 220.26L684.296 221.612L677.135 194.091ZM699.833 217.57L690.257 206.903L695.752 205.453L705.34 215.855L705.409 216.119L699.833 217.57Z"
            fill="#0098EA" />
        <path
            d="M753.056 209.27C752.885 209.295 752.704 209.28 752.532 209.219C752.032 209.04 751.733 208.526 751.826 208.001L754.357 193.648L745.887 194.879C745.485 194.938 745.086 194.769 744.846 194.44C744.609 194.11 744.572 193.677 744.753 193.313L756.569 169.548C756.801 169.083 757.338 168.85 757.833 168.981C758.336 169.12 758.672 169.593 758.635 170.112L757.601 184.358L766.223 183.104C766.633 183.045 767.042 183.223 767.28 183.566C767.515 183.909 767.533 184.356 767.33 184.718L753.85 208.725C753.68 209.03 753.382 209.223 753.056 209.27ZM747.635 192.42L755.537 191.272C755.885 191.221 756.233 191.34 756.477 191.592C756.72 191.843 756.829 192.195 756.767 192.542L755.086 202.066L764.343 185.582L756.572 186.712C756.246 186.759 755.913 186.656 755.671 186.431C755.429 186.206 755.303 185.882 755.325 185.553L756.057 175.479L747.635 192.42Z"
            fill="#0098EA" />
        <path
            d="M821.781 172.744L814.749 174.574L813.757 170.917L819.787 169.348C820.82 169.079 821.646 168.71 822.264 168.239C822.881 167.769 823.294 167.211 823.503 166.565C823.724 165.915 823.731 165.194 823.525 164.4C823.295 163.518 822.938 162.844 822.454 162.378C821.982 161.908 821.36 161.64 820.589 161.571C819.815 161.49 818.886 161.591 817.802 161.873L813.53 162.984L819.623 186.404L814.425 187.756L807.265 160.235L816.735 157.771C818.297 157.364 819.729 157.153 821.03 157.138C822.34 157.106 823.504 157.288 824.522 157.682C825.539 158.077 826.39 158.683 827.074 159.501C827.77 160.315 828.285 161.365 828.62 162.65C828.915 163.784 828.922 164.899 828.642 165.995C828.371 167.074 827.771 168.051 826.842 168.925C825.925 169.796 824.652 170.49 823.024 171.008L821.781 172.744ZM824.746 185.071L816.41 187.24L817.521 182.591L823.683 180.988C824.717 180.719 825.523 180.328 826.102 179.814C826.694 179.296 827.077 178.699 827.251 178.022C827.433 177.328 827.423 176.591 827.22 175.81C826.997 174.953 826.652 174.249 826.186 173.697C825.732 173.142 825.14 172.779 824.409 172.606C823.69 172.429 822.814 172.476 821.781 172.744L816.375 174.151L815.459 170.474L822.339 168.684L823.899 169.792C825.49 169.391 826.863 169.37 828.019 169.729C829.188 170.084 830.138 170.684 830.869 171.53C831.601 172.376 832.112 173.359 832.404 174.481C832.863 176.245 832.864 177.826 832.407 179.223C831.962 180.617 831.088 181.806 829.783 182.791C828.491 183.773 826.812 184.533 824.746 185.071ZM845.804 154.668L844.033 180.053L838.533 181.484L841.655 151.287L845.171 150.372L845.804 154.668ZM858.437 176.305L844.481 155.012L842.921 150.958L846.456 150.038L863.956 174.869L858.437 176.305ZM855.417 166.173L856.484 170.274L841.722 174.115L840.654 170.014L855.417 166.173ZM870.998 143.653L878.159 171.174L872.98 172.521L865.819 145L870.998 143.653ZM879.542 141.43L880.609 145.532L858.437 151.3L857.37 147.198L879.542 141.43ZM897.053 136.874L904.213 164.395L899.034 165.743L891.874 138.221L897.053 136.874ZM905.597 134.651L906.664 138.753L884.492 144.521L883.425 140.42L905.597 134.651ZM935.33 151.94L936.392 156.023L921.762 159.83L920.7 155.747L935.33 151.94ZM916.189 131.895L923.35 159.416L918.152 160.769L910.991 133.248L916.189 131.895ZM930.278 140.359L931.316 144.347L918.595 147.657L917.557 143.668L930.278 140.359ZM929.175 128.517L930.242 132.618L915.669 136.41L914.602 132.308L929.175 128.517ZM934.778 127.059L944.777 124.457C946.868 123.913 948.746 123.761 950.41 124.001C952.073 124.241 953.469 124.873 954.597 125.898C955.724 126.924 956.523 128.337 956.991 130.139C957.362 131.563 957.431 132.864 957.199 134.041C956.967 135.218 956.483 136.279 955.747 137.224C955.023 138.165 954.096 138.999 952.966 139.723L951.557 140.978L942.73 143.274L941.625 139.182L948.222 137.466C949.293 137.187 950.132 136.767 950.739 136.206C951.347 135.644 951.74 134.983 951.919 134.224C952.111 133.461 952.095 132.651 951.872 131.794C951.633 130.874 951.25 130.126 950.723 129.55C950.193 128.961 949.522 128.578 948.708 128.399C947.895 128.221 946.94 128.274 945.844 128.559L941.043 129.808L947.136 153.228L941.938 154.58L934.778 127.059ZM957.475 150.538L947.899 139.871L953.394 138.421L962.983 148.822L963.051 149.087L957.475 150.538ZM963.63 119.552L973.017 130.813L975.765 116.395L981.473 114.91L976.864 134.737L979.485 144.811L974.211 146.184L971.59 136.109L957.883 121.047L963.63 119.552Z"
            fill="#0098EA" />
        <path
            d="M1034.85 135.955C1034.68 135.98 1034.5 135.964 1034.32 135.903C1033.82 135.725 1033.52 135.211 1033.62 134.685L1036.15 120.333L1027.68 121.564C1027.28 121.622 1026.88 121.453 1026.64 121.124C1026.4 120.795 1026.36 120.362 1026.54 119.998L1038.36 96.2333C1038.59 95.7674 1039.13 95.535 1039.62 95.6658C1040.13 95.8044 1040.46 96.2781 1040.43 96.7972L1039.39 111.042L1048.01 109.789C1048.42 109.73 1048.83 109.908 1049.07 110.251C1049.31 110.594 1049.32 111.041 1049.12 111.403L1035.64 135.41C1035.47 135.715 1035.17 135.908 1034.85 135.955ZM1029.43 119.105L1037.33 117.957C1037.68 117.906 1038.02 118.025 1038.27 118.276C1038.51 118.528 1038.62 118.88 1038.56 119.226L1036.88 128.75L1046.13 112.267L1038.36 113.397C1038.04 113.444 1037.7 113.34 1037.46 113.115C1037.22 112.89 1037.09 112.567 1037.12 112.237L1037.85 102.163L1029.43 119.105Z"
            fill="#0098EA" />
        <path
            d="M1100.87 83.8458L1108.03 111.367L1102.85 112.715L1095.69 85.1933L1100.87 83.8458ZM1109.41 81.623L1110.48 85.7247L1088.31 91.4933L1087.24 87.3916L1109.41 81.623ZM1139.96 87.6203L1140.33 89.0379C1140.87 91.1171 1141.08 93.0605 1140.96 94.8682C1140.84 96.6632 1140.41 98.2732 1139.69 99.698C1138.98 101.123 1137.99 102.328 1136.74 103.312C1135.49 104.297 1134 105.014 1132.27 105.463C1130.57 105.906 1128.93 106.004 1127.35 105.757C1125.77 105.506 1124.32 104.936 1122.99 104.045C1121.65 103.155 1120.48 101.958 1119.49 100.455C1118.49 98.939 1117.72 97.1415 1117.18 95.0622L1116.81 93.6446C1116.26 91.5528 1116.06 89.6077 1116.2 87.8094C1116.34 86.0111 1116.76 84.3995 1117.48 82.9746C1118.2 81.5371 1119.18 80.3261 1120.43 79.3414C1121.7 78.3535 1123.18 77.6382 1124.88 77.1956C1126.61 76.7464 1128.26 76.647 1129.83 76.8972C1131.4 77.1475 1132.85 77.7258 1134.17 78.6322C1135.51 79.5227 1136.67 80.7212 1137.65 82.2277C1138.65 83.7309 1139.42 85.5284 1139.96 87.6203ZM1135.08 90.4051L1134.7 88.9496C1134.31 87.45 1133.83 86.1693 1133.25 85.1073C1132.68 84.0327 1132.02 83.1752 1131.27 82.5349C1130.53 81.8946 1129.71 81.4824 1128.81 81.2983C1127.91 81.1017 1126.97 81.1328 1125.97 81.3918C1124.96 81.6541 1124.12 82.0885 1123.44 82.695C1122.78 83.2856 1122.27 84.0421 1121.94 84.9643C1121.6 85.8866 1121.43 86.9588 1121.44 88.1809C1121.46 89.3872 1121.66 90.7401 1122.05 92.2396L1122.43 93.6951C1122.82 95.182 1123.3 96.4628 1123.88 97.5374C1124.46 98.6087 1125.13 99.4708 1125.88 100.124C1126.64 100.761 1127.46 101.179 1128.35 101.379C1129.23 101.579 1130.18 101.548 1131.19 101.286C1132.2 101.023 1133.04 100.589 1133.71 99.9826C1134.39 99.3761 1134.89 98.6133 1135.22 97.6943C1135.55 96.7595 1135.71 95.6826 1135.69 94.4638C1135.67 93.2449 1135.46 91.892 1135.08 90.4051ZM1165.02 67.1557L1172.18 94.677L1166.96 96.0343L1150.3 79.9874L1155.26 99.0784L1150.06 100.431L1142.9 72.9095L1148.1 71.5571L1164.81 87.6131L1159.84 68.5032L1165.02 67.1557ZM1177.45 63.9227L1184.61 91.444L1179.41 92.7964L1172.25 65.2751L1177.45 63.9227ZM1193.97 59.6245L1186.42 75.9169L1181.86 84.3075L1179.62 79.5017L1182.53 72.6712L1187.6 61.2818L1193.97 59.6245ZM1195.34 88.6507L1183.43 77.9873L1186.27 73.6539L1201.52 87.0425L1195.34 88.6507ZM1223.06 77.0809L1224.12 81.1638L1209.49 84.9702L1208.43 80.8873L1223.06 77.0809ZM1203.92 57.0358L1211.08 84.5571L1205.88 85.9095L1198.72 58.3882L1203.92 57.0358ZM1218.01 65.4993L1219.04 69.4876L1206.32 72.7973L1205.28 68.809L1218.01 65.4993ZM1216.9 53.6572L1217.97 57.759L1203.4 61.5506L1202.33 57.4489L1216.9 53.6572ZM1246.84 70.8923L1247.91 74.9752L1233.28 78.7816L1232.21 74.6987L1246.84 70.8923ZM1227.7 50.8472L1234.86 78.3685L1229.66 79.7209L1222.5 52.1996L1227.7 50.8472ZM1241.79 59.3107L1242.83 63.299L1230.11 66.6087L1229.07 62.6204L1241.79 59.3107ZM1240.69 47.4686L1241.76 51.5704L1227.18 55.362L1226.11 51.2603L1240.69 47.4686ZM1261.42 60.7413L1254.34 62.5855L1253.27 58.5027L1260.36 56.6585C1261.52 56.3569 1262.41 55.9236 1263.03 55.3587C1263.66 54.7779 1264.06 54.1093 1264.23 53.3529C1264.39 52.5839 1264.36 51.7647 1264.13 50.8952C1263.91 50.0509 1263.54 49.3076 1263.01 48.6652C1262.48 48.0229 1261.79 47.57 1260.94 47.3065C1260.1 47.0397 1259.1 47.0571 1257.94 47.3588L1252.56 48.7603L1258.65 72.1799L1253.45 73.5323L1246.29 46.011L1256.88 43.257C1259.02 42.6997 1260.95 42.6086 1262.66 42.9839C1264.38 43.3432 1265.81 44.0938 1266.96 45.2356C1268.11 46.3615 1268.91 47.7814 1269.36 49.4952C1269.82 51.2719 1269.81 52.9079 1269.34 54.4031C1268.88 55.895 1267.98 57.1858 1266.64 58.2756C1265.3 59.3621 1263.57 60.184 1261.42 60.7413ZM1297.4 57.7381L1298.46 61.821L1283.83 65.6274L1282.77 61.5445L1297.4 57.7381ZM1278.26 37.693L1285.42 65.2143L1280.22 66.5667L1273.06 39.0454L1278.26 37.693ZM1292.35 46.1565L1293.39 50.1448L1280.67 53.4545L1279.63 49.4662L1292.35 46.1565ZM1291.25 34.3144L1292.31 38.4162L1277.74 42.2078L1276.67 38.1061L1291.25 34.3144ZM1296.85 32.8568L1306.85 30.2553C1308.94 29.711 1310.82 29.5589 1312.48 29.7988C1314.15 30.0387 1315.54 30.6712 1316.67 31.6963C1317.8 32.7214 1318.59 34.135 1319.06 35.937C1319.43 37.3609 1319.5 38.6614 1319.27 39.8385C1319.04 41.0155 1318.56 42.0765 1317.82 43.0215C1317.1 43.9633 1316.17 44.7964 1315.04 45.5209L1313.63 46.7756L1304.8 49.0722L1303.7 44.9803L1310.29 43.264C1311.37 42.9853 1312.2 42.5651 1312.81 42.0035C1313.42 41.4419 1313.81 40.7812 1313.99 40.0215C1314.18 39.2586 1314.17 38.4487 1313.94 37.5918C1313.7 36.6719 1313.32 35.9239 1312.8 35.3478C1312.27 34.7592 1311.59 34.3756 1310.78 34.197C1309.97 34.0184 1309.01 34.0718 1307.92 34.357L1303.11 35.6061L1309.21 59.0257L1304.01 60.3781L1296.85 32.8568ZM1319.55 56.3356L1309.97 45.6688L1315.47 44.2189L1325.05 54.6202L1325.12 54.8849L1319.55 56.3356Z"
            fill="#0098EA" />
    </g>
    <defs>
        <clipPath id="clip0_43_7817">
            <rect width="1406" height="87" fill="white"
                transform="translate(-51 354.021) rotate(-14.5836)" />
        </clipPath>
    </defs>
</svg>
    