<svg width="1280" height="452" viewBox="0 0 1280 452" fill="none" xmlns="http://www.w3.org/2000/svg">
    <g opacity="0.7">
    <mask id="path-1-outside-1_48_8023" maskUnits="userSpaceOnUse" x="-179" y="-2" width="1673" height="491" fill="black">
    <rect fill="white" x="-179" y="-2" width="1673" height="491"/>
    <path d="M-141.325 360V35.0308H-11.2099C12.6973 35.0308 32.6377 38.5746 48.6111 45.6621C64.5845 52.7497 76.591 62.5876 84.6306 75.1759C92.6702 87.6585 96.69 102.045 96.69 118.336C96.69 131.03 94.1512 142.19 89.0736 151.817C83.9959 161.337 77.0142 169.165 68.1283 175.301C59.3482 181.33 49.2987 185.615 37.9798 188.153V191.327C50.3565 191.856 61.9399 195.347 72.7299 201.8C83.6257 208.253 92.4586 217.297 99.2288 228.933C105.999 240.464 109.384 254.216 109.384 270.189C109.384 287.432 105.1 302.824 96.5313 316.364C88.0686 329.799 75.5332 340.43 58.925 348.258C42.3169 356.086 21.8477 360 -2.48271 360H-141.325ZM-72.6177 303.829H-16.6049C2.54205 303.829 16.5056 300.179 25.2857 292.88C34.0658 285.475 38.4558 275.637 38.4558 263.366C38.4558 254.374 36.2872 246.441 31.9501 239.565C27.6129 232.689 21.4245 227.294 13.3849 223.38C5.45111 219.466 -4.01658 217.509 -15.0181 217.509H-72.6177V303.829ZM-72.6177 171.016H-21.6825C-12.2677 171.016 -3.91079 169.377 3.38832 166.097C10.7932 162.712 16.6114 157.952 20.8427 151.817C25.1799 145.681 27.3484 138.329 27.3484 129.761C27.3484 118.019 23.17 108.551 14.813 101.358C6.56185 94.1642 -5.1802 90.5675 -20.4131 90.5675H-72.6177V171.016ZM222.322 364.602C206.772 364.602 192.914 361.904 180.749 356.509C168.584 351.008 158.957 342.916 151.87 332.232C144.888 321.442 141.397 308.007 141.397 291.928C141.397 278.387 143.883 267.016 148.855 257.812C153.827 248.609 160.597 241.204 169.165 235.598C177.734 229.991 187.466 225.76 198.362 222.904C209.363 220.047 220.894 218.038 232.953 216.874C247.128 215.393 258.553 214.018 267.227 212.748C275.902 211.373 282.196 209.363 286.11 206.719C290.024 204.074 291.981 200.16 291.981 194.977V194.025C291.981 183.975 288.807 176.2 282.46 170.699C276.219 165.198 267.333 162.448 255.803 162.448C243.638 162.448 233.958 165.145 226.765 170.54C219.572 175.83 214.811 182.494 212.484 190.534L149.966 185.456C153.139 170.646 159.38 157.846 168.689 147.056C177.998 136.161 190.005 127.804 204.709 121.985C219.519 116.062 236.656 113.1 256.12 113.1C269.66 113.1 282.619 114.686 294.996 117.86C307.478 121.033 318.533 125.952 328.159 132.617C337.891 139.281 345.561 147.85 351.167 158.322C356.774 168.689 359.577 181.119 359.577 195.611V360H295.472V326.202H293.568C289.654 333.818 284.417 340.536 277.859 346.354C271.3 352.066 263.419 356.562 254.216 359.841C245.013 363.015 234.381 364.602 222.322 364.602ZM241.681 317.951C251.624 317.951 260.404 315.994 268.021 312.08C275.637 308.06 281.614 302.665 285.951 295.895C290.288 289.125 292.457 281.455 292.457 272.887V247.022C290.341 248.398 287.432 249.667 283.73 250.831C280.133 251.889 276.06 252.893 271.512 253.846C266.963 254.692 262.414 255.485 257.866 256.226C253.317 256.86 249.191 257.442 245.489 257.971C237.555 259.135 230.626 260.986 224.702 263.525C218.778 266.064 214.177 269.502 210.897 273.839C207.618 278.07 205.978 283.359 205.978 289.706C205.978 298.91 209.311 305.944 215.975 310.81C222.745 315.571 231.314 317.951 241.681 317.951ZM541.658 116.273V167.05H394.883V116.273H541.658ZM428.205 57.8802H495.801V285.105C495.801 291.346 496.753 296.212 498.657 299.703C500.561 303.088 503.206 305.468 506.591 306.843C510.082 308.219 514.101 308.906 518.65 308.906C521.824 308.906 524.997 308.642 528.171 308.113C531.344 307.478 533.777 307.002 535.47 306.685L546.101 356.985C542.716 358.043 537.956 359.26 531.82 360.635C525.685 362.116 518.227 363.015 509.447 363.332C493.156 363.967 478.875 361.798 466.604 356.826C454.439 351.855 444.971 344.132 438.201 333.66C431.431 323.187 428.099 309.964 428.205 293.991V57.8802ZM715.329 116.273V167.05H568.554V116.273H715.329ZM601.876 57.8802H669.472V285.105C669.472 291.346 670.424 296.212 672.328 299.703C674.232 303.088 676.877 305.468 680.262 306.843C683.753 308.219 687.773 308.906 692.321 308.906C695.495 308.906 698.668 308.642 701.842 308.113C705.015 307.478 707.449 307.002 709.141 306.685L719.772 356.985C716.387 358.043 711.627 359.26 705.492 360.635C699.356 362.116 691.898 363.015 683.118 363.332C666.827 363.967 652.547 361.798 640.276 356.826C628.11 351.855 618.643 344.132 611.872 333.66C605.102 323.187 601.77 309.964 601.876 293.991V57.8802ZM867.817 364.76C842.747 364.76 821.167 359.683 803.077 349.527C785.094 339.266 771.236 324.774 761.504 306.05C751.772 287.22 746.906 264.953 746.906 239.247C746.906 214.176 751.772 192.173 761.504 173.238C771.236 154.303 784.935 139.546 802.601 128.967C820.373 118.389 841.213 113.1 865.12 113.1C881.199 113.1 896.168 115.691 910.025 120.875C923.989 125.952 936.154 133.622 946.521 143.883C956.994 154.144 965.139 167.05 970.957 182.6C976.775 198.044 979.684 216.133 979.684 236.867V255.432H773.881V213.542H916.055C916.055 203.81 913.939 195.188 909.708 187.677C905.477 180.167 899.606 174.296 892.095 170.064C884.69 165.727 876.069 163.559 866.231 163.559C855.97 163.559 846.872 165.939 838.938 170.699C831.11 175.354 824.975 181.648 820.532 189.582C816.089 197.41 813.815 206.137 813.709 215.763V255.591C813.709 267.65 815.93 278.07 820.373 286.85C824.922 295.63 831.322 302.4 839.573 307.161C847.824 311.921 857.609 314.301 868.928 314.301C876.439 314.301 883.315 313.243 889.556 311.128C895.797 309.012 901.139 305.838 905.582 301.607C910.025 297.376 913.41 292.192 915.738 286.057L978.256 290.182C975.083 305.204 968.577 318.321 958.739 329.534C949.007 340.641 936.418 349.316 920.974 355.557C905.635 361.693 887.916 364.76 867.817 364.76ZM1023.8 360V116.273H1089.33V158.798H1091.87C1096.31 143.671 1103.77 132.247 1114.24 124.524C1124.71 116.696 1136.77 112.782 1150.42 112.782C1153.81 112.782 1157.45 112.994 1161.37 113.417C1165.28 113.84 1168.72 114.422 1171.68 115.162V175.142C1168.51 174.19 1164.12 173.344 1158.51 172.603C1152.91 171.863 1147.78 171.492 1143.12 171.492C1133.18 171.492 1124.29 173.661 1116.46 177.998C1108.74 182.23 1102.61 188.154 1098.06 195.77C1093.61 203.386 1091.39 212.167 1091.39 222.11V360H1023.8ZM1255.78 451.398C1247.21 451.398 1239.17 450.71 1231.66 449.335C1224.26 448.065 1218.12 446.426 1213.26 444.416L1228.49 393.957C1236.42 396.39 1243.56 397.712 1249.91 397.924C1256.36 398.135 1261.92 396.654 1266.57 393.481C1271.33 390.307 1275.19 384.912 1278.15 377.296L1282.12 366.982L1194.69 116.273H1265.78L1316.24 295.26H1318.78L1369.71 116.273H1441.27L1346.54 386.34C1342 399.458 1335.81 410.882 1327.98 420.614C1320.26 430.452 1310.47 438.016 1298.62 443.305C1286.78 448.7 1272.49 451.398 1255.78 451.398Z"/>
    </mask>
    <path d="M-141.325 360V35.0308H-11.2099C12.6973 35.0308 32.6377 38.5746 48.6111 45.6621C64.5845 52.7497 76.591 62.5876 84.6306 75.1759C92.6702 87.6585 96.69 102.045 96.69 118.336C96.69 131.03 94.1512 142.19 89.0736 151.817C83.9959 161.337 77.0142 169.165 68.1283 175.301C59.3482 181.33 49.2987 185.615 37.9798 188.153V191.327C50.3565 191.856 61.9399 195.347 72.7299 201.8C83.6257 208.253 92.4586 217.297 99.2288 228.933C105.999 240.464 109.384 254.216 109.384 270.189C109.384 287.432 105.1 302.824 96.5313 316.364C88.0686 329.799 75.5332 340.43 58.925 348.258C42.3169 356.086 21.8477 360 -2.48271 360H-141.325ZM-72.6177 303.829H-16.6049C2.54205 303.829 16.5056 300.179 25.2857 292.88C34.0658 285.475 38.4558 275.637 38.4558 263.366C38.4558 254.374 36.2872 246.441 31.9501 239.565C27.6129 232.689 21.4245 227.294 13.3849 223.38C5.45111 219.466 -4.01658 217.509 -15.0181 217.509H-72.6177V303.829ZM-72.6177 171.016H-21.6825C-12.2677 171.016 -3.91079 169.377 3.38832 166.097C10.7932 162.712 16.6114 157.952 20.8427 151.817C25.1799 145.681 27.3484 138.329 27.3484 129.761C27.3484 118.019 23.17 108.551 14.813 101.358C6.56185 94.1642 -5.1802 90.5675 -20.4131 90.5675H-72.6177V171.016ZM222.322 364.602C206.772 364.602 192.914 361.904 180.749 356.509C168.584 351.008 158.957 342.916 151.87 332.232C144.888 321.442 141.397 308.007 141.397 291.928C141.397 278.387 143.883 267.016 148.855 257.812C153.827 248.609 160.597 241.204 169.165 235.598C177.734 229.991 187.466 225.76 198.362 222.904C209.363 220.047 220.894 218.038 232.953 216.874C247.128 215.393 258.553 214.018 267.227 212.748C275.902 211.373 282.196 209.363 286.11 206.719C290.024 204.074 291.981 200.16 291.981 194.977V194.025C291.981 183.975 288.807 176.2 282.46 170.699C276.219 165.198 267.333 162.448 255.803 162.448C243.638 162.448 233.958 165.145 226.765 170.54C219.572 175.83 214.811 182.494 212.484 190.534L149.966 185.456C153.139 170.646 159.38 157.846 168.689 147.056C177.998 136.161 190.005 127.804 204.709 121.985C219.519 116.062 236.656 113.1 256.12 113.1C269.66 113.1 282.619 114.686 294.996 117.86C307.478 121.033 318.533 125.952 328.159 132.617C337.891 139.281 345.561 147.85 351.167 158.322C356.774 168.689 359.577 181.119 359.577 195.611V360H295.472V326.202H293.568C289.654 333.818 284.417 340.536 277.859 346.354C271.3 352.066 263.419 356.562 254.216 359.841C245.013 363.015 234.381 364.602 222.322 364.602ZM241.681 317.951C251.624 317.951 260.404 315.994 268.021 312.08C275.637 308.06 281.614 302.665 285.951 295.895C290.288 289.125 292.457 281.455 292.457 272.887V247.022C290.341 248.398 287.432 249.667 283.73 250.831C280.133 251.889 276.06 252.893 271.512 253.846C266.963 254.692 262.414 255.485 257.866 256.226C253.317 256.86 249.191 257.442 245.489 257.971C237.555 259.135 230.626 260.986 224.702 263.525C218.778 266.064 214.177 269.502 210.897 273.839C207.618 278.07 205.978 283.359 205.978 289.706C205.978 298.91 209.311 305.944 215.975 310.81C222.745 315.571 231.314 317.951 241.681 317.951ZM541.658 116.273V167.05H394.883V116.273H541.658ZM428.205 57.8802H495.801V285.105C495.801 291.346 496.753 296.212 498.657 299.703C500.561 303.088 503.206 305.468 506.591 306.843C510.082 308.219 514.101 308.906 518.65 308.906C521.824 308.906 524.997 308.642 528.171 308.113C531.344 307.478 533.777 307.002 535.47 306.685L546.101 356.985C542.716 358.043 537.956 359.26 531.82 360.635C525.685 362.116 518.227 363.015 509.447 363.332C493.156 363.967 478.875 361.798 466.604 356.826C454.439 351.855 444.971 344.132 438.201 333.66C431.431 323.187 428.099 309.964 428.205 293.991V57.8802ZM715.329 116.273V167.05H568.554V116.273H715.329ZM601.876 57.8802H669.472V285.105C669.472 291.346 670.424 296.212 672.328 299.703C674.232 303.088 676.877 305.468 680.262 306.843C683.753 308.219 687.773 308.906 692.321 308.906C695.495 308.906 698.668 308.642 701.842 308.113C705.015 307.478 707.449 307.002 709.141 306.685L719.772 356.985C716.387 358.043 711.627 359.26 705.492 360.635C699.356 362.116 691.898 363.015 683.118 363.332C666.827 363.967 652.547 361.798 640.276 356.826C628.11 351.855 618.643 344.132 611.872 333.66C605.102 323.187 601.77 309.964 601.876 293.991V57.8802ZM867.817 364.76C842.747 364.76 821.167 359.683 803.077 349.527C785.094 339.266 771.236 324.774 761.504 306.05C751.772 287.22 746.906 264.953 746.906 239.247C746.906 214.176 751.772 192.173 761.504 173.238C771.236 154.303 784.935 139.546 802.601 128.967C820.373 118.389 841.213 113.1 865.12 113.1C881.199 113.1 896.168 115.691 910.025 120.875C923.989 125.952 936.154 133.622 946.521 143.883C956.994 154.144 965.139 167.05 970.957 182.6C976.775 198.044 979.684 216.133 979.684 236.867V255.432H773.881V213.542H916.055C916.055 203.81 913.939 195.188 909.708 187.677C905.477 180.167 899.606 174.296 892.095 170.064C884.69 165.727 876.069 163.559 866.231 163.559C855.97 163.559 846.872 165.939 838.938 170.699C831.11 175.354 824.975 181.648 820.532 189.582C816.089 197.41 813.815 206.137 813.709 215.763V255.591C813.709 267.65 815.93 278.07 820.373 286.85C824.922 295.63 831.322 302.4 839.573 307.161C847.824 311.921 857.609 314.301 868.928 314.301C876.439 314.301 883.315 313.243 889.556 311.128C895.797 309.012 901.139 305.838 905.582 301.607C910.025 297.376 913.41 292.192 915.738 286.057L978.256 290.182C975.083 305.204 968.577 318.321 958.739 329.534C949.007 340.641 936.418 349.316 920.974 355.557C905.635 361.693 887.916 364.76 867.817 364.76ZM1023.8 360V116.273H1089.33V158.798H1091.87C1096.31 143.671 1103.77 132.247 1114.24 124.524C1124.71 116.696 1136.77 112.782 1150.42 112.782C1153.81 112.782 1157.45 112.994 1161.37 113.417C1165.28 113.84 1168.72 114.422 1171.68 115.162V175.142C1168.51 174.19 1164.12 173.344 1158.51 172.603C1152.91 171.863 1147.78 171.492 1143.12 171.492C1133.18 171.492 1124.29 173.661 1116.46 177.998C1108.74 182.23 1102.61 188.154 1098.06 195.77C1093.61 203.386 1091.39 212.167 1091.39 222.11V360H1023.8ZM1255.78 451.398C1247.21 451.398 1239.17 450.71 1231.66 449.335C1224.26 448.065 1218.12 446.426 1213.26 444.416L1228.49 393.957C1236.42 396.39 1243.56 397.712 1249.91 397.924C1256.36 398.135 1261.92 396.654 1266.57 393.481C1271.33 390.307 1275.19 384.912 1278.15 377.296L1282.12 366.982L1194.69 116.273H1265.78L1316.24 295.26H1318.78L1369.71 116.273H1441.27L1346.54 386.34C1342 399.458 1335.81 410.882 1327.98 420.614C1320.26 430.452 1310.47 438.016 1298.62 443.305C1286.78 448.7 1272.49 451.398 1255.78 451.398Z" fill="url(#paint0_linear_48_8023)" fill-opacity="0.04"/>
    <path d="M-141.325 360H-178.325V397H-141.325V360ZM-141.325 35.0308V-1.96918H-178.325V35.0308H-141.325ZM48.6111 45.6621L33.6047 79.4824V79.4824L48.6111 45.6621ZM84.6306 75.1759L53.4476 95.0912L53.4857 95.151L53.5241 95.2106L84.6306 75.1759ZM89.0735 151.817L121.721 169.228L121.76 169.154L121.8 169.079L89.0735 151.817ZM68.1283 175.301L89.0742 205.801L89.1128 205.775L89.1513 205.748L68.1283 175.301ZM37.9798 188.154L29.8819 152.051L0.979767 158.533V188.154H37.9798ZM37.9798 191.327H0.979767V226.78L36.4 228.293L37.9798 191.327ZM72.7299 201.8L53.7394 233.554L53.8074 233.595L53.8757 233.635L72.7299 201.8ZM99.2288 228.933L67.2479 247.54L67.285 247.604L67.3223 247.668L99.2288 228.933ZM96.5313 316.364L65.2657 296.579L65.2452 296.611L65.2248 296.643L96.5313 316.364ZM58.925 348.258L43.15 314.789H43.15L58.925 348.258ZM-72.6177 303.829H-109.618V340.829H-72.6177V303.829ZM25.2857 292.88L48.9388 321.332L49.0395 321.248L49.1397 321.164L25.2857 292.88ZM31.9501 239.565L0.655533 259.304H0.655548L31.9501 239.565ZM13.3849 223.38L-2.98477 256.561L-2.89792 256.604L-2.81084 256.647L13.3849 223.38ZM-72.6177 217.509V180.509H-109.618V217.509H-72.6177ZM-72.6177 171.016H-109.618V208.016H-72.6177V171.016ZM3.38832 166.097L18.5515 199.848L18.6616 199.798L18.7714 199.748L3.38832 166.097ZM20.8427 151.817L-9.37065 130.459L-9.49443 130.634L-9.61617 130.811L20.8427 151.817ZM14.813 101.358L-9.50099 129.247L-9.41309 129.324L-9.32469 129.4L14.813 101.358ZM-72.6177 90.5675V53.5675H-109.618V90.5675H-72.6177ZM-104.325 360V35.0308H-178.325V360H-104.325ZM-141.325 72.0308H-11.2099V-1.96918H-141.325V72.0308ZM-11.2099 72.0308C9.31691 72.0308 23.7558 75.1123 33.6047 79.4824L63.6174 11.8419C41.5195 2.03686 16.0777 -1.96918 -11.2099 -1.96918V72.0308ZM33.6047 79.4824C44.0914 84.1354 49.9463 89.6089 53.4476 95.0912L115.814 55.2607C103.236 35.5663 85.0777 21.364 63.6174 11.8419L33.6047 79.4824ZM53.5241 95.2106C57.3454 101.144 59.69 108.433 59.69 118.336H133.69C133.69 95.6569 127.995 74.1733 115.737 55.1413L53.5241 95.2106ZM59.69 118.336C59.69 126.017 58.1847 131.071 56.3472 134.554L121.8 169.079C130.118 153.31 133.69 136.043 133.69 118.336H59.69ZM56.4265 134.405C54.13 138.711 51.1356 142.071 47.1052 144.854L89.1513 205.748C102.893 196.26 113.862 183.964 121.721 169.228L56.4265 134.405ZM47.1823 144.8C42.6223 147.932 37.0122 150.451 29.8819 152.051L46.0776 224.256C61.5852 220.778 76.0741 214.729 89.0742 205.801L47.1823 144.8ZM0.979767 188.154V191.327H74.9798V188.154H0.979767ZM36.4 228.293C42.5354 228.555 48.1474 230.21 53.7394 233.554L91.7204 170.045C75.7324 160.484 58.1776 155.156 39.5595 154.361L36.4 228.293ZM53.8757 233.635C58.995 236.667 63.4457 241.005 67.2479 247.54L131.21 210.326C121.472 193.589 108.256 179.838 91.5841 169.964L53.8757 233.635ZM67.3223 247.668C70.1611 252.502 72.3841 259.516 72.3841 270.189H146.384C146.384 248.916 141.837 228.425 131.135 210.199L67.3223 247.668ZM72.3841 270.189C72.3841 280.983 69.802 289.41 65.2657 296.579L127.797 336.149C140.398 316.237 146.384 293.882 146.384 270.189H72.3841ZM65.2248 296.643C61.0814 303.221 54.3959 309.489 43.15 314.789L74.7 381.727C96.6705 371.371 115.056 356.376 127.838 336.085L65.2248 296.643ZM43.15 314.789C32.8065 319.665 18.0857 323 -2.48271 323V397C25.6096 397 51.8274 392.507 74.7001 381.727L43.15 314.789ZM-2.48271 323H-141.325V397H-2.48271V323ZM-72.6177 340.829H-16.6049V266.829H-72.6177V340.829ZM-16.6049 340.829C5.80655 340.829 30.3065 336.822 48.9388 321.332L1.63257 264.428C2.36179 263.821 1.94969 264.489 -1.12822 265.294C-4.24809 266.109 -9.22835 266.829 -16.6049 266.829V340.829ZM49.1397 321.164C66.8838 306.199 75.4558 285.692 75.4558 263.366H1.4558C1.4558 264.226 1.37924 264.715 1.3412 264.907C1.30559 265.086 1.2961 265.046 1.37476 264.87C1.45561 264.689 1.5592 264.522 1.64357 264.411C1.72272 264.307 1.69049 264.378 1.43166 264.596L49.1397 321.164ZM75.4558 263.366C75.4558 248.154 71.6978 233.226 63.2446 219.825L0.655548 259.304C0.876694 259.655 1.4558 260.595 1.4558 263.366H75.4558ZM63.2446 219.825C54.87 206.548 43.1746 196.731 29.5807 190.113L-2.81084 256.647C-0.325562 257.857 0.355789 258.829 0.655533 259.304L63.2446 219.825ZM29.7546 190.198C15.6418 183.236 0.308716 180.509 -15.0181 180.509V254.509C-8.34187 254.509 -4.73962 255.696 -2.98477 256.561L29.7546 190.198ZM-15.0181 180.509H-72.6177V254.509H-15.0181V180.509ZM-109.618 217.509V303.829H-35.6177V217.509H-109.618ZM-72.6177 208.016H-21.6826V134.016H-72.6177V208.016ZM-21.6826 208.016C-7.95317 208.016 5.71672 205.614 18.5515 199.848L-11.7748 132.347C-13.5383 133.14 -16.5823 134.016 -21.6826 134.016V208.016ZM18.7714 199.748C31.6712 193.851 42.9322 184.958 51.3016 172.823L-9.61617 130.811C-9.70949 130.946 -10.0847 131.574 -11.9948 132.447L18.7714 199.748ZM51.0561 173.174C60.4111 159.94 64.3484 144.865 64.3484 129.761H-9.65155C-9.65155 130.913 -9.79478 131.33 -9.76636 131.233C-9.75432 131.192 -9.7157 131.076 -9.63672 130.912C-9.55731 130.748 -9.464 130.591 -9.37065 130.459L51.0561 173.174ZM64.3484 129.761C64.3484 108.039 56.0572 88.0398 38.9507 73.3152L-9.32469 129.4C-9.13229 129.565 -9.15057 129.581 -9.26892 129.424C-9.32428 129.35 -9.39001 129.254 -9.45804 129.138C-9.52614 129.022 -9.58588 128.905 -9.63531 128.793C-9.68463 128.681 -9.71556 128.593 -9.73259 128.539C-9.74944 128.485 -9.74771 128.479 -9.73724 128.532C-9.7169 128.636 -9.65155 129.022 -9.65155 129.761H64.3484ZM39.127 73.4679C21.905 58.4539 0.268997 53.5675 -20.4131 53.5675V127.568C-10.6294 127.568 -8.78131 129.875 -9.50099 129.247L39.127 73.4679ZM-20.4131 53.5675H-72.6177V127.568H-20.4131V53.5675ZM-109.618 90.5675V171.016H-35.6177V90.5675H-109.618ZM180.749 356.509L165.504 390.223L165.626 390.278L165.749 390.332L180.749 356.509ZM151.87 332.232L120.806 352.332L120.92 352.509L121.037 352.685L151.87 332.232ZM148.855 257.812L116.302 240.226L148.855 257.812ZM169.165 235.598L148.907 204.637L169.165 235.598ZM198.362 222.904L189.064 187.091L189.022 187.102L188.98 187.113L198.362 222.904ZM232.953 216.874L236.507 253.703L236.653 253.689L236.798 253.674L232.953 216.874ZM267.227 212.748L272.585 249.358L272.803 249.326L273.021 249.292L267.227 212.748ZM286.11 206.719L265.395 176.061L265.395 176.061L286.11 206.719ZM282.46 170.699L257.996 198.457L258.112 198.559L258.228 198.66L282.46 170.699ZM226.765 170.54L248.683 200.35L248.825 200.246L248.965 200.14L226.765 170.54ZM212.484 190.534L209.489 227.412L239.619 229.859L248.025 200.822L212.484 190.534ZM149.966 185.456L113.787 177.703L104.954 218.922L146.97 222.335L149.966 185.456ZM168.689 147.056L196.704 171.226L196.762 171.158L196.82 171.091L168.689 147.056ZM204.709 121.985L218.322 156.39L218.386 156.365L218.45 156.339L204.709 121.985ZM294.996 117.86L285.806 153.7L285.842 153.71L285.879 153.719L294.996 117.86ZM328.159 132.617L307.098 163.038L307.176 163.092L307.254 163.145L328.159 132.617ZM351.167 158.322L318.548 175.785L318.585 175.854L318.622 175.923L351.167 158.322ZM359.577 360V397H396.577V360H359.577ZM295.472 360H258.472V397H295.472V360ZM295.472 326.202H332.472V289.202H295.472V326.202ZM293.568 326.202V289.202H270.982L260.659 309.29L293.568 326.202ZM277.859 346.354L302.16 374.255L302.287 374.144L302.413 374.033L277.859 346.354ZM254.216 359.841L266.278 394.82L266.457 394.758L266.635 394.695L254.216 359.841ZM268.021 312.08L284.932 344.989L285.112 344.896L285.291 344.802L268.021 312.08ZM285.951 295.895L254.796 275.936L285.951 295.895ZM292.457 247.022H329.457V178.843L272.292 216L292.457 247.022ZM283.73 250.831L294.17 286.327L294.498 286.231L294.823 286.128L283.73 250.831ZM271.512 253.846L278.279 290.221L278.686 290.146L279.092 290.061L271.512 253.846ZM257.866 256.226L262.979 292.871L263.395 292.812L263.811 292.745L257.866 256.226ZM245.489 257.971L240.256 221.343L240.188 221.353L240.12 221.363L245.489 257.971ZM224.702 263.525L239.277 297.533H239.277L224.702 263.525ZM210.897 273.839L240.143 296.504L240.278 296.33L240.411 296.154L210.897 273.839ZM215.975 310.81L194.156 340.693L194.423 340.887L194.693 341.077L215.975 310.81ZM222.322 327.602C211.077 327.602 202.461 325.663 195.749 322.686L165.749 390.332C183.367 398.145 202.467 401.602 222.322 401.602V327.602ZM195.993 322.796C189.892 320.037 185.78 316.418 182.702 311.778L121.037 352.685C132.134 369.414 147.275 381.98 165.504 390.223L195.993 322.796ZM182.934 312.131C180.695 308.672 178.397 302.663 178.397 291.928H104.397C104.397 313.351 109.081 334.211 120.806 352.332L182.934 312.131ZM178.397 291.928C178.397 282.772 180.089 277.841 181.408 275.399L116.302 240.226C107.677 256.19 104.397 274.003 104.397 291.928H178.397ZM181.408 275.399C183.523 271.485 186.116 268.723 189.424 266.559L148.907 204.637C135.078 213.685 124.131 225.734 116.302 240.226L181.408 275.399ZM189.424 266.559C194.335 263.346 200.326 260.639 207.744 258.694L188.98 187.113C174.606 190.881 161.133 196.637 148.907 204.637L189.424 266.559ZM207.659 258.716C216.657 256.38 226.26 254.692 236.507 253.703L229.4 180.045C215.528 181.383 202.07 183.714 189.064 187.091L207.659 258.716ZM236.798 253.674C251.209 252.168 263.197 250.732 272.585 249.358L261.87 176.138C253.91 177.303 243.048 178.618 229.109 180.074L236.798 253.674ZM273.021 249.292C283.218 247.675 296.058 244.651 306.825 237.376L265.395 176.061C266.399 175.383 267.121 175.035 267.378 174.917C267.644 174.796 267.615 174.83 267.199 174.963C266.308 175.247 264.483 175.721 261.434 176.205L273.021 249.292ZM306.825 237.376C322.036 227.099 328.981 211.041 328.981 194.977H254.981C254.981 192.877 255.396 189.299 257.419 185.253C259.51 181.072 262.513 178.008 265.395 176.061L306.825 237.376ZM328.981 194.977V194.025H254.981V194.977H328.981ZM328.981 194.025C328.981 175.557 322.747 156.652 306.693 142.739L258.228 198.66C257.688 198.192 257.103 197.574 256.558 196.814C256.013 196.054 255.615 195.301 255.344 194.638C254.801 193.306 254.981 192.872 254.981 194.025H328.981ZM306.925 142.941C291.707 129.529 272.864 125.448 255.803 125.448V199.448C258.709 199.448 260.005 199.804 260.175 199.856C260.232 199.874 259.997 199.806 259.566 199.571C259.125 199.331 258.574 198.966 257.996 198.457L306.925 142.941ZM255.803 125.448C238.423 125.448 220.085 129.301 204.565 140.94L248.965 200.14C247.832 200.99 248.852 199.448 255.803 199.448V125.448ZM204.847 140.731C191.554 150.505 181.693 163.836 176.943 180.245L248.025 200.822C248.047 200.746 248.049 200.758 248.016 200.827C247.982 200.898 247.941 200.965 247.908 201.011C247.876 201.056 247.89 201.027 247.989 200.928C248.091 200.826 248.306 200.627 248.683 200.35L204.847 140.731ZM215.479 153.655L152.961 148.577L146.97 222.335L209.489 227.412L215.479 153.655ZM186.144 193.209C188.101 184.076 191.706 177.019 196.704 171.226L140.675 122.887C127.055 138.673 118.177 157.217 113.787 177.703L186.144 193.209ZM196.82 171.091C201.815 165.245 208.639 160.221 218.322 156.39L191.096 87.5808C171.37 95.3857 154.182 107.077 140.558 123.022L196.82 171.091ZM218.45 156.339C228.043 152.502 240.356 150.1 256.12 150.1V76.0996C232.956 76.0996 210.995 79.621 190.968 87.6318L218.45 156.339ZM256.12 150.1C266.745 150.1 276.605 151.341 285.806 153.7L304.186 82.0193C288.633 78.0313 272.576 76.0996 256.12 76.0996V150.1ZM285.879 153.719C294.515 155.915 301.443 159.123 307.098 163.038L349.22 102.196C335.623 92.7822 320.442 86.1521 304.113 82.0006L285.879 153.719ZM307.254 163.145C312.054 166.432 315.721 170.505 318.548 175.785L383.787 140.859C375.4 125.194 363.729 112.13 349.064 102.089L307.254 163.145ZM318.622 175.923C320.706 179.778 322.577 185.87 322.577 195.611H396.577C396.577 176.367 392.841 157.601 383.713 140.721L318.622 175.923ZM322.577 195.611V360H396.577V195.611H322.577ZM359.577 323H295.472V397H359.577V323ZM332.472 360V326.202H258.472V360H332.472ZM295.472 289.202H293.568V363.202H295.472V289.202ZM260.659 309.29C258.889 312.733 256.519 315.824 253.305 318.675L302.413 374.033C312.316 365.248 320.418 354.903 326.477 343.113L260.659 309.29ZM253.558 318.453C250.894 320.773 247.175 323.072 241.797 324.988L266.635 394.695C279.664 390.052 291.706 383.36 302.16 374.255L253.558 318.453ZM242.154 324.863C237.632 326.422 231.218 327.602 222.322 327.602V401.602C237.545 401.602 252.394 399.608 266.278 394.82L242.154 324.863ZM241.681 354.951C256.557 354.951 271.3 351.994 284.932 344.989L251.109 279.171C249.509 279.993 246.692 280.951 241.681 280.951V354.951ZM285.291 344.802C298.145 338.018 309.076 328.388 317.106 315.854L254.796 275.936C254.152 276.942 253.129 278.102 250.751 279.358L285.291 344.802ZM317.106 315.854C325.514 302.729 329.457 288.044 329.457 272.887H255.457C255.457 274.867 255.063 275.52 254.796 275.936L317.106 315.854ZM329.457 272.887V247.022H255.457V272.887H329.457ZM272.292 216C272.823 215.655 273.236 215.425 273.489 215.292C273.744 215.158 273.887 215.096 273.89 215.094C273.896 215.092 273.798 215.134 273.58 215.215C273.363 215.295 273.052 215.402 272.636 215.533L294.823 286.128C300.207 284.436 306.608 281.953 312.622 278.045L272.292 216ZM273.29 215.334C270.828 216.058 267.735 216.834 263.932 217.63L279.092 290.061C284.386 288.953 289.438 287.719 294.17 286.327L273.29 215.334ZM264.744 217.47C260.468 218.265 256.193 219.011 251.921 219.706L263.811 292.745C268.635 291.96 273.458 291.118 278.279 290.221L264.744 217.47ZM252.752 219.581C248.172 220.22 244.006 220.807 240.256 221.343L250.721 294.599C254.376 294.077 258.461 293.501 262.979 292.871L252.752 219.581ZM240.12 221.363C229.754 222.883 219.607 225.453 210.127 229.516L239.277 297.533C241.645 296.518 245.356 295.386 250.858 294.579L240.12 221.363ZM210.127 229.516C199.392 234.117 189.205 241.18 181.384 251.524L240.411 296.154C239.836 296.914 239.284 297.402 238.953 297.648C238.648 297.877 238.681 297.789 239.277 297.533L210.127 229.516ZM181.652 251.174C172.458 263.037 168.978 276.732 168.978 289.706H242.978C242.978 289.715 242.976 290.557 242.549 291.935C242.101 293.379 241.314 294.993 240.143 296.504L181.652 251.174ZM168.978 289.706C168.978 309.149 176.748 327.982 194.156 340.693L237.794 280.928C239.136 281.908 240.781 283.65 241.916 286.046C242.985 288.302 242.978 289.819 242.978 289.706H168.978ZM194.693 341.077C209.112 351.215 225.633 354.951 241.681 354.951V280.951C239.305 280.951 237.96 280.676 237.382 280.516C236.866 280.372 236.935 280.317 237.257 280.543L194.693 341.077ZM541.658 116.273H578.658V79.2731H541.658V116.273ZM541.658 167.05V204.05H578.658V167.05H541.658ZM394.883 167.05H357.883V204.05H394.883V167.05ZM394.883 116.273V79.2731H357.883V116.273H394.883ZM428.205 57.8802V20.8802H391.205V57.8802H428.205ZM495.801 57.8802H532.801V20.8802H495.801V57.8802ZM498.657 299.703L466.175 317.421L466.29 317.632L466.409 317.843L498.657 299.703ZM506.591 306.843L492.665 341.123L492.847 341.197L493.029 341.269L506.591 306.843ZM528.171 308.113L534.253 344.609L534.842 344.511L535.427 344.394L528.171 308.113ZM535.47 306.685L571.67 299.034L564.193 263.654L528.651 270.318L535.47 306.685ZM546.101 356.985L557.137 392.301L589.261 382.262L582.301 349.334L546.101 356.985ZM531.82 360.635L523.728 324.53L523.433 324.597L523.139 324.668L531.82 360.635ZM509.447 363.332L508.11 326.356L508.058 326.358L508.006 326.36L509.447 363.332ZM466.604 356.826L452.606 391.076L452.658 391.098L452.71 391.119L466.604 356.826ZM438.201 333.66L469.274 313.572L438.201 333.66ZM428.205 293.991L465.204 294.236L465.205 294.113V293.991H428.205ZM504.658 116.273V167.05H578.658V116.273H504.658ZM541.658 130.05H394.883V204.05H541.658V130.05ZM431.883 167.05V116.273H357.883V167.05H431.883ZM394.883 153.273H541.658V79.2731H394.883V153.273ZM428.205 94.8802H495.801V20.8802H428.205V94.8802ZM458.801 57.8802V285.105H532.801V57.8802H458.801ZM458.801 285.105C458.801 294.346 460.083 306.252 466.175 317.421L531.139 281.985C532.381 284.263 532.747 285.927 532.826 286.331C532.908 286.747 532.801 286.422 532.801 285.105H458.801ZM466.409 317.843C472.14 328.032 481.013 336.389 492.665 341.123L520.517 272.564C522.69 273.447 524.868 274.768 526.82 276.525C528.751 278.263 530.064 280.069 530.905 281.563L466.409 317.843ZM493.029 341.269C501.65 344.664 510.418 345.906 518.65 345.906V271.906C517.784 271.906 518.514 271.773 520.152 272.418L493.029 341.269ZM518.65 345.906C523.89 345.906 529.097 345.469 534.253 344.609L522.088 271.616C520.897 271.815 519.758 271.906 518.65 271.906V345.906ZM535.427 344.394C538.557 343.768 540.818 343.327 542.288 343.051L528.651 270.318C526.737 270.677 524.131 271.188 520.914 271.831L535.427 344.394ZM499.27 314.336L509.901 364.636L582.301 349.334L571.67 299.034L499.27 314.336ZM535.065 321.669C533.116 322.278 529.502 323.236 523.728 324.53L539.913 396.739C546.409 395.283 552.316 393.807 557.137 392.301L535.065 321.669ZM523.139 324.668C520.142 325.391 515.299 326.097 508.11 326.356L510.783 400.308C521.155 399.933 531.228 398.84 540.502 396.602L523.139 324.668ZM508.006 326.36C495.776 326.837 486.917 325.135 480.498 322.534L452.71 391.119C470.834 398.462 490.536 401.097 510.887 400.304L508.006 326.36ZM480.602 322.577C475.044 320.305 471.707 317.336 469.274 313.572L407.129 353.747C418.236 370.929 433.835 383.405 452.606 391.076L480.602 322.577ZM469.274 313.572C467.382 310.647 465.132 305.008 465.204 294.236L391.205 293.746C391.065 314.92 395.48 335.727 407.129 353.747L469.274 313.572ZM465.205 293.991V57.8802H391.205V293.991H465.205ZM715.329 116.273H752.329V79.2731H715.329V116.273ZM715.329 167.05V204.05H752.329V167.05H715.329ZM568.554 167.05H531.554V204.05H568.554V167.05ZM568.554 116.273V79.2731H531.554V116.273H568.554ZM601.876 57.8802V20.8802H564.876V57.8802H601.876ZM669.472 57.8802H706.472V20.8802H669.472V57.8802ZM672.328 299.703L639.846 317.421L639.962 317.632L640.08 317.843L672.328 299.703ZM680.262 306.843L666.336 341.123L666.518 341.197L666.701 341.269L680.262 306.843ZM701.842 308.113L707.925 344.609L708.513 344.511L709.098 344.394L701.842 308.113ZM709.141 306.685L745.341 299.034L737.864 263.654L702.322 270.318L709.141 306.685ZM719.772 356.985L730.809 392.301L762.932 382.262L755.973 349.334L719.772 356.985ZM705.492 360.635L697.399 324.53L697.104 324.597L696.81 324.668L705.492 360.635ZM683.118 363.332L681.782 326.356L681.73 326.358L681.678 326.36L683.118 363.332ZM640.276 356.826L626.278 391.076L626.329 391.098L626.381 391.119L640.276 356.826ZM611.872 333.66L642.945 313.572L611.872 333.66ZM601.876 293.991L638.875 294.236L638.876 294.113V293.991H601.876ZM678.329 116.273V167.05H752.329V116.273H678.329ZM715.329 130.05H568.554V204.05H715.329V130.05ZM605.554 167.05V116.273H531.554V167.05H605.554ZM568.554 153.273H715.329V79.2731H568.554V153.273ZM601.876 94.8802H669.472V20.8802H601.876V94.8802ZM632.472 57.8802V285.105H706.472V57.8802H632.472ZM632.472 285.105C632.472 294.346 633.754 306.252 639.846 317.421L704.81 281.985C706.053 284.263 706.419 285.927 706.498 286.331C706.579 286.747 706.472 286.422 706.472 285.105H632.472ZM640.08 317.843C645.812 328.032 654.684 336.389 666.336 341.123L694.188 272.564C696.361 273.447 698.539 274.768 700.491 276.525C702.422 278.263 703.736 280.069 704.576 281.563L640.08 317.843ZM666.701 341.269C675.321 344.664 684.09 345.906 692.321 345.906V271.906C691.456 271.906 692.185 271.773 693.823 272.418L666.701 341.269ZM692.321 345.906C697.561 345.906 702.769 345.469 707.925 344.609L695.759 271.616C694.568 271.815 693.429 271.906 692.321 271.906V345.906ZM709.098 344.394C712.229 343.768 714.489 343.327 715.96 343.051L702.322 270.318C700.408 270.677 697.802 271.188 694.586 271.831L709.098 344.394ZM672.941 314.336L683.572 364.636L755.973 349.334L745.341 299.034L672.941 314.336ZM708.736 321.669C706.787 322.278 703.174 323.236 697.399 324.53L713.584 396.739C720.08 395.283 725.987 393.807 730.809 392.301L708.736 321.669ZM696.81 324.668C693.813 325.391 688.97 326.097 681.782 326.356L684.455 400.308C694.826 399.933 704.899 398.84 714.173 396.602L696.81 324.668ZM681.678 326.36C669.448 326.837 660.588 325.135 654.17 322.534L626.381 391.119C644.505 398.462 664.207 401.097 684.559 400.304L681.678 326.36ZM654.273 322.577C648.715 320.305 645.378 317.336 642.945 313.572L580.8 353.747C591.907 370.929 607.506 383.405 626.278 391.076L654.273 322.577ZM642.945 313.572C641.054 310.647 638.804 305.008 638.875 294.236L564.877 293.746C564.736 314.92 569.151 335.727 580.8 353.747L642.945 313.572ZM638.876 293.991V57.8802H564.876V293.991H638.876ZM803.077 349.527L784.741 381.664L784.852 381.728L784.965 381.791L803.077 349.527ZM761.504 306.05L728.635 323.039L728.655 323.076L728.674 323.114L761.504 306.05ZM761.504 173.238L728.596 156.324V156.324L761.504 173.238ZM802.601 128.967L783.677 97.1734L783.635 97.1982L783.593 97.2232L802.601 128.967ZM910.025 120.875L897.063 155.53L897.222 155.589L897.381 155.647L910.025 120.875ZM946.521 143.883L920.492 170.18L920.559 170.246L920.626 170.311L946.521 143.883ZM970.957 182.6L936.303 195.566L936.318 195.604L936.332 195.643L970.957 182.6ZM979.684 255.432V292.432H1016.68V255.432H979.684ZM773.881 255.432H736.881V292.432H773.881V255.432ZM773.881 213.542V176.542H736.881V213.542H773.881ZM916.055 213.542V250.542H953.055V213.542H916.055ZM909.708 187.677L877.472 205.839V205.839L909.708 187.677ZM892.095 170.064L873.395 201.991L873.663 202.148L873.934 202.301L892.095 170.064ZM838.938 170.699L857.848 202.502L857.911 202.464L857.975 202.426L838.938 170.699ZM820.532 189.582L852.71 207.845L852.763 207.753L852.815 207.66L820.532 189.582ZM813.709 215.763L776.711 215.357L776.709 215.56V215.763H813.709ZM820.373 286.85L787.359 303.556L787.439 303.714L787.52 303.87L820.373 286.85ZM889.556 311.128L877.678 276.086L889.556 311.128ZM905.582 301.607L880.065 274.814L880.065 274.814L905.582 301.607ZM915.738 286.057L918.174 249.137L890.853 247.334L881.143 272.935L915.738 286.057ZM978.256 290.182L1014.46 297.831L1023.28 256.073L980.693 253.263L978.256 290.182ZM958.739 329.534L930.926 305.132L930.918 305.142L930.91 305.151L958.739 329.534ZM920.974 355.557L934.715 389.911L934.776 389.886L934.837 389.862L920.974 355.557ZM867.817 327.76C847.772 327.76 832.702 323.727 821.19 317.264L784.965 381.791C809.631 395.639 837.721 401.76 867.817 401.76V327.76ZM821.414 317.391C809.735 310.727 800.852 301.525 794.334 288.986L728.674 323.114C741.621 348.023 760.453 367.806 784.741 381.664L821.414 317.391ZM794.373 289.061C787.874 276.487 783.906 260.285 783.906 239.247H709.906C709.906 269.621 715.67 297.954 728.635 323.039L794.373 289.061ZM783.906 239.247C783.906 219.017 787.808 203 794.412 190.152L728.596 156.324C715.736 181.346 709.906 209.336 709.906 239.247H783.906ZM794.412 190.152C801.099 177.141 810.079 167.616 821.61 160.711L783.593 97.2232C759.792 111.475 741.374 131.464 728.596 156.324L794.412 190.152ZM821.526 160.761C832.73 154.092 846.82 150.1 865.12 150.1V76.0996C835.606 76.0996 808.016 82.6856 783.677 97.1734L821.526 160.761ZM865.12 150.1C877.158 150.1 887.697 152.026 897.063 155.53L922.988 86.2197C904.639 79.3562 885.24 76.0996 865.12 76.0996V150.1ZM897.381 155.647C906.42 158.934 913.995 163.748 920.492 170.18L972.549 117.586C958.313 103.495 941.558 92.9707 922.67 86.1024L897.381 155.647ZM920.626 170.311C926.746 176.307 932.132 184.416 936.303 195.566L1005.61 169.634C998.146 149.683 987.241 131.981 972.416 117.454L920.626 170.311ZM936.332 195.643C940.235 206.003 942.684 219.493 942.684 236.867H1016.68C1016.68 212.774 1013.32 190.086 1005.58 169.556L936.332 195.643ZM942.684 236.867V255.432H1016.68V236.867H942.684ZM979.684 218.432H773.881V292.432H979.684V218.432ZM810.881 255.432V213.542H736.881V255.432H810.881ZM773.881 250.542H916.055V176.542H773.881V250.542ZM953.055 213.542C953.055 198.282 949.684 183.255 941.944 169.516L877.472 205.839C878.194 207.121 879.055 209.338 879.055 213.542H953.055ZM941.944 169.516C934.395 156.116 923.656 145.377 910.256 137.828L873.934 202.301C875.555 203.214 876.558 204.217 877.472 205.839L941.944 169.516ZM910.795 138.138C896.93 130.017 881.664 126.559 866.231 126.559V200.559C870.473 200.559 872.45 201.438 873.395 201.991L910.795 138.138ZM866.231 126.559C850.015 126.559 834.198 130.394 819.902 138.972L857.975 202.426C859.546 201.484 861.924 200.559 866.231 200.559V126.559ZM820.029 138.896C806.624 146.866 795.872 157.89 788.249 171.503L852.815 207.66C854.077 205.405 855.596 203.841 857.848 202.502L820.029 138.896ZM788.353 171.318C780.604 184.972 776.881 199.915 776.711 215.357L850.707 216.17C850.748 212.358 851.574 209.847 852.71 207.845L788.353 171.318ZM776.709 215.763V255.591H850.709V215.763H776.709ZM776.709 255.591C776.709 272.166 779.77 288.559 787.359 303.556L853.387 270.144C852.09 267.582 850.709 263.134 850.709 255.591H776.709ZM787.52 303.87C795.192 318.678 806.465 330.776 821.083 339.21L858.063 275.112C856.178 274.025 854.652 272.583 853.226 269.83L787.52 303.87ZM821.083 339.21C835.932 347.776 852.345 351.301 868.928 351.301V277.301C862.873 277.301 859.717 276.066 858.063 275.112L821.083 339.21ZM868.928 351.301C879.923 351.301 890.874 349.749 901.435 346.169L877.678 276.086C875.755 276.738 872.955 277.301 868.928 277.301V351.301ZM901.435 346.169C912.384 342.458 922.481 336.609 931.1 328.4L880.065 274.814C879.798 275.068 879.211 275.566 877.678 276.086L901.435 346.169ZM931.1 328.4C939.829 320.087 946.18 310.126 950.333 299.179L881.143 272.935C880.641 274.259 880.222 274.665 880.065 274.814L931.1 328.4ZM913.301 322.977L975.82 327.102L980.693 253.263L918.174 249.137L913.301 322.977ZM942.055 282.534C940.154 291.533 936.451 298.835 930.926 305.132L986.552 353.936C1000.7 337.807 1010.01 318.874 1014.46 297.831L942.055 282.534ZM930.91 305.151C925.457 311.374 917.881 316.9 907.111 321.252L934.837 389.862C954.956 381.732 972.557 369.909 986.568 353.918L930.91 305.151ZM907.233 321.203C897.099 325.257 884.201 327.76 867.817 327.76V401.76C891.632 401.76 914.171 398.128 934.715 389.911L907.233 321.203ZM1023.8 360H986.796V397H1023.8V360ZM1023.8 116.273V79.2731H986.796V116.273H1023.8ZM1089.33 116.273H1126.33V79.2731H1089.33V116.273ZM1089.33 158.798H1052.33V195.798H1089.33V158.798ZM1091.87 158.798V195.798H1119.56L1127.37 169.225L1091.87 158.798ZM1114.24 124.524L1136.2 154.304L1136.3 154.232L1136.39 154.16L1114.24 124.524ZM1161.37 113.417L1165.35 76.6313L1165.35 76.6313L1161.37 113.417ZM1171.68 115.162H1208.68V86.2735L1180.66 79.2671L1171.68 115.162ZM1171.68 175.142L1161.05 210.582L1208.68 224.871V175.142H1171.68ZM1116.46 177.998L1134.24 210.446L1134.32 210.405L1134.39 210.363L1116.46 177.998ZM1098.06 195.77L1066.29 176.799L1066.19 176.962L1066.1 177.127L1098.06 195.77ZM1091.39 360V397H1128.39V360H1091.39ZM1060.8 360V116.273H986.796V360H1060.8ZM1023.8 153.273H1089.33V79.2731H1023.8V153.273ZM1052.33 116.273V158.798H1126.33V116.273H1052.33ZM1089.33 195.798H1091.87V121.798H1089.33V195.798ZM1127.37 169.225C1130.03 160.169 1133.52 156.28 1136.2 154.304L1092.28 94.7448C1074.02 108.213 1062.59 127.174 1056.37 148.372L1127.37 169.225ZM1136.39 154.16C1140.18 151.332 1144.39 149.782 1150.42 149.782V75.7822C1129.16 75.7822 1109.25 82.0608 1092.09 94.8884L1136.39 154.16ZM1150.42 149.782C1152.28 149.782 1154.59 149.9 1157.39 150.203L1165.35 76.6313C1160.32 76.0877 1155.33 75.7822 1150.42 75.7822V149.782ZM1157.39 150.203C1160.08 150.493 1161.78 150.826 1162.71 151.058L1180.66 79.2671C1175.66 78.0181 1170.49 77.1874 1165.35 76.6313L1157.39 150.203ZM1134.68 115.162V175.142H1208.68V115.162H1134.68ZM1182.31 139.702C1176.38 137.924 1169.76 136.768 1163.36 135.922L1153.67 209.285C1155.93 209.583 1157.69 209.87 1159.01 210.124C1159.66 210.25 1160.16 210.359 1160.52 210.444C1160.69 210.487 1160.83 210.521 1160.92 210.545C1161.01 210.57 1161.05 210.583 1161.05 210.582L1182.31 139.702ZM1163.36 135.922C1156.47 135.012 1149.7 134.492 1143.12 134.492V208.492C1145.86 208.492 1149.34 208.713 1153.67 209.285L1163.36 135.922ZM1143.12 134.492C1127.62 134.492 1112.44 137.929 1098.53 145.634L1134.39 210.363C1136.14 209.393 1138.74 208.492 1143.12 208.492V134.492ZM1098.68 145.55C1085.14 152.973 1074.19 163.569 1066.29 176.799L1129.82 214.741C1131.02 212.738 1132.35 211.486 1134.24 210.446L1098.68 145.55ZM1066.1 177.127C1057.95 191.097 1054.39 206.47 1054.39 222.11H1128.39C1128.39 217.863 1129.28 215.676 1130.02 214.413L1066.1 177.127ZM1054.39 222.11V360H1128.39V222.11H1054.39ZM1091.39 323H1023.8V397H1091.39V323ZM1231.66 449.335L1238.33 412.94L1238.12 412.902L1237.91 412.867L1231.66 449.335ZM1213.26 444.416L1177.83 433.723L1168.15 465.816L1199.13 478.613L1213.26 444.416ZM1228.49 393.957L1239.34 358.583L1203.81 347.687L1193.07 383.264L1228.49 393.957ZM1249.91 397.924L1248.68 434.903L1248.69 434.903L1248.7 434.904L1249.91 397.924ZM1266.57 393.481L1246.05 362.695L1245.89 362.802L1245.73 362.91L1266.57 393.481ZM1278.15 377.296L1312.64 390.706L1312.66 390.642L1312.69 390.578L1278.15 377.296ZM1282.12 366.982L1316.66 380.264L1321.52 367.605L1317.06 354.798L1282.12 366.982ZM1194.69 116.273V79.2731H1142.6L1159.75 128.457L1194.69 116.273ZM1265.78 116.273L1301.39 106.234L1293.79 79.2731H1265.78V116.273ZM1316.24 295.26L1280.62 305.3L1288.23 332.26H1316.24V295.26ZM1318.78 295.26V332.26H1346.72L1354.36 305.387L1318.78 295.26ZM1369.71 116.273V79.2731H1341.77L1334.12 106.146L1369.71 116.273ZM1441.27 116.273L1476.19 128.52L1493.46 79.2731H1441.27V116.273ZM1346.54 386.34L1311.63 374.094L1311.61 374.156L1311.59 374.218L1346.54 386.34ZM1327.98 420.614L1299.15 397.424L1299.01 397.596L1298.87 397.769L1327.98 420.614ZM1298.62 443.305L1283.54 409.519L1283.42 409.575L1283.29 409.632L1298.62 443.305ZM1255.78 414.398C1249.18 414.398 1243.39 413.867 1238.33 412.94L1225 485.73C1234.95 487.553 1245.24 488.398 1255.78 488.398V414.398ZM1237.91 412.867C1232.17 411.881 1228.89 410.843 1227.38 410.218L1199.13 478.613C1207.35 482.008 1216.35 484.249 1225.41 485.803L1237.91 412.867ZM1248.68 455.109L1263.91 404.65L1193.07 383.264L1177.83 433.723L1248.68 455.109ZM1217.64 429.331C1227.8 432.446 1238.25 434.555 1248.68 434.903L1251.14 360.944C1248.88 360.869 1245.05 360.334 1239.34 358.583L1217.64 429.331ZM1248.7 434.904C1261.8 435.334 1275.35 432.274 1287.41 424.051L1245.73 362.91C1246.92 362.096 1248.21 361.534 1249.38 361.221C1250.51 360.92 1251.17 360.945 1251.12 360.944L1248.7 434.904ZM1287.09 424.267C1300.37 415.418 1308.06 402.493 1312.64 390.706L1243.67 363.885C1243.06 365.45 1242.72 365.837 1242.95 365.521C1243.21 365.153 1244.16 363.951 1246.05 362.695L1287.09 424.267ZM1312.69 390.578L1316.66 380.264L1247.59 353.7L1243.62 364.013L1312.69 390.578ZM1317.06 354.798L1229.63 104.09L1159.75 128.457L1247.18 379.165L1317.06 354.798ZM1194.69 153.273H1265.78V79.2731H1194.69V153.273ZM1230.17 126.313L1280.62 305.3L1351.85 285.221L1301.39 106.234L1230.17 126.313ZM1316.24 332.26H1318.78V258.26H1316.24V332.26ZM1354.36 305.387L1405.3 126.4L1334.12 106.146L1283.19 285.133L1354.36 305.387ZM1369.71 153.273H1441.27V79.2731H1369.71V153.273ZM1406.36 104.026L1311.63 374.094L1381.46 398.587L1476.19 128.52L1406.36 104.026ZM1311.59 374.218C1308.27 383.767 1304.03 391.351 1299.15 397.424L1356.81 443.804C1367.58 430.414 1375.72 415.148 1381.5 398.463L1311.59 374.218ZM1298.87 397.769C1295.01 402.694 1290.11 406.587 1283.54 409.519L1313.71 477.091C1330.84 469.444 1345.51 458.211 1357.08 443.46L1298.87 397.769ZM1283.29 409.632C1277.42 412.306 1268.65 414.398 1255.78 414.398V488.398C1276.34 488.398 1296.13 485.095 1313.96 476.978L1283.29 409.632Z" fill="black" fill-opacity="0.05" mask="url(#path-1-outside-1_48_8023)"/>
    </g>
    <defs>
    <linearGradient id="paint0_linear_48_8023" x1="-170" y1="197.5" x2="1449.32" y2="197.5" gradientUnits="userSpaceOnUse">
    <stop stop-color="#45AEF5"/>
    <stop offset="1" stop-color="#28668F"/>
    </linearGradient>
    </defs>
    </svg>
    