<svg width="323" height="12" viewBox="0 0 323 12" fill="none" xmlns="http://www.w3.org/2000/svg">
<path d="M0.226497 6L6 0.226497L11.7735 6L6 11.7735L0.226497 6ZM11.9444 5C12.4967 5 12.9444 5.44771 12.9444 6C12.9444 6.55228 12.4967 7 11.9444 7L11.9444 5ZM23.8333 7C23.281 7 22.8333 6.55228 22.8333 6C22.8333 5.44771 23.281 5 23.8333 5L23.8333 7ZM35.7222 5C36.2745 5 36.7222 5.44771 36.7222 6C36.7222 6.55228 36.2745 7 35.7222 7L35.7222 5ZM47.6111 7C47.0588 7 46.6111 6.55228 46.6111 6C46.6111 5.44771 47.0588 5 47.6111 5L47.6111 7ZM59.5 5C60.0523 5 60.5 5.44771 60.5 6C60.5 6.55228 60.0523 7 59.5 7L59.5 5ZM71.3889 6.99999C70.8366 6.99999 70.3889 6.55228 70.3889 5.99999C70.3889 5.44771 70.8366 4.99999 71.3889 4.99999L71.3889 6.99999ZM83.2778 4.99999C83.8301 4.99999 84.2778 5.44771 84.2778 5.99999C84.2778 6.55228 83.8301 6.99999 83.2778 6.99999L83.2778 4.99999ZM95.1667 6.99999C94.6144 6.99999 94.1667 6.55228 94.1667 5.99999C94.1667 5.44771 94.6144 4.99999 95.1667 4.99999L95.1667 6.99999ZM107.056 4.99999C107.608 4.99999 108.056 5.44771 108.056 5.99999C108.056 6.55228 107.608 6.99999 107.056 6.99999L107.056 4.99999ZM118.944 6.99999C118.392 6.99999 117.944 6.55227 117.944 5.99999C117.944 5.44771 118.392 4.99999 118.944 4.99999L118.944 6.99999ZM130.833 4.99999C131.386 4.99999 131.833 5.4477 131.833 5.99999C131.833 6.55227 131.386 6.99999 130.833 6.99999L130.833 4.99999ZM142.722 6.99999C142.17 6.99999 141.722 6.55227 141.722 5.99999C141.722 5.4477 142.17 4.99999 142.722 4.99999L142.722 6.99999ZM154.611 4.99999C155.163 4.99999 155.611 5.4477 155.611 5.99999C155.611 6.55227 155.163 6.99999 154.611 6.99999L154.611 4.99999ZM166.5 6.99999C165.948 6.99999 165.5 6.55227 165.5 5.99999C165.5 5.4477 165.948 4.99999 166.5 4.99999L166.5 6.99999ZM178.389 4.99998C178.941 4.99998 179.389 5.4477 179.389 5.99998C179.389 6.55227 178.941 6.99998 178.389 6.99998L178.389 4.99998ZM190.278 6.99998C189.725 6.99998 189.278 6.55227 189.278 5.99998C189.278 5.4477 189.725 4.99998 190.278 4.99998L190.278 6.99998ZM202.167 4.99998C202.719 4.99998 203.167 5.4477 203.167 5.99998C203.167 6.55227 202.719 6.99998 202.167 6.99998L202.167 4.99998ZM214.056 6.99998C213.503 6.99998 213.056 6.55227 213.056 5.99998C213.056 5.4477 213.503 4.99998 214.056 4.99998L214.056 6.99998ZM225.944 4.99998C226.497 4.99998 226.944 5.4477 226.944 5.99998C226.944 6.55227 226.497 6.99998 225.944 6.99998L225.944 4.99998ZM237.833 6.99998C237.281 6.99998 236.833 6.55226 236.833 5.99998C236.833 5.4477 237.281 4.99998 237.833 4.99998L237.833 6.99998ZM249.722 4.99998C250.274 4.99998 250.722 5.44769 250.722 5.99998C250.722 6.55226 250.274 6.99998 249.722 6.99998L249.722 4.99998ZM261.611 6.99998C261.059 6.99998 260.611 6.55226 260.611 5.99998C260.611 5.44769 261.059 4.99998 261.611 4.99998L261.611 6.99998ZM273.5 4.99998C274.052 4.99998 274.5 5.44769 274.5 5.99998C274.5 6.55226 274.052 6.99998 273.5 6.99998L273.5 4.99998ZM285.389 6.99998C284.837 6.99998 284.389 6.55226 284.389 5.99998C284.389 5.44769 284.837 4.99998 285.389 4.99998L285.389 6.99998ZM297.278 4.99997C297.83 4.99997 298.278 5.44769 298.278 5.99997C298.278 6.55226 297.83 6.99997 297.278 6.99997L297.278 4.99997ZM309.167 6.99997C308.614 6.99997 308.167 6.55226 308.167 5.99997C308.167 5.44769 308.614 4.99997 309.167 4.99997L309.167 6.99997ZM321.056 4.99997C321.608 4.99997 322.056 5.44769 322.056 5.99997C322.056 6.55226 321.608 6.99997 321.056 6.99997L321.056 4.99997ZM6 5L11.9444 5L11.9444 7L6 7L6 5ZM23.8333 5L35.7222 5L35.7222 7L23.8333 7L23.8333 5ZM47.6111 5L59.5 5L59.5 7L47.6111 7L47.6111 5ZM71.3889 4.99999L83.2778 4.99999L83.2778 6.99999L71.3889 6.99999L71.3889 4.99999ZM95.1667 4.99999L107.056 4.99999L107.056 6.99999L95.1667 6.99999L95.1667 4.99999ZM118.944 4.99999L130.833 4.99999L130.833 6.99999L118.944 6.99999L118.944 4.99999ZM142.722 4.99999L154.611 4.99999L154.611 6.99999L142.722 6.99999L142.722 4.99999ZM166.5 4.99999L178.389 4.99998L178.389 6.99998L166.5 6.99999L166.5 4.99999ZM190.278 4.99998L202.167 4.99998L202.167 6.99998L190.278 6.99998L190.278 4.99998ZM214.056 4.99998L225.944 4.99998L225.944 6.99998L214.056 6.99998L214.056 4.99998ZM237.833 4.99998L249.722 4.99998L249.722 6.99998L237.833 6.99998L237.833 4.99998ZM261.611 4.99998L273.5 4.99998L273.5 6.99998L261.611 6.99998L261.611 4.99998ZM285.389 4.99998L297.278 4.99997L297.278 6.99997L285.389 6.99998L285.389 4.99998ZM309.167 4.99997L321.056 4.99997L321.056 6.99997L309.167 6.99997L309.167 4.99997Z" fill="url(#paint0_linear_93_338)"/>
<defs>
<linearGradient id="paint0_linear_93_338" x1="-18.7306" y1="5.46392" x2="-17.4242" y2="-8.48272" gradientUnits="userSpaceOnUse">
<stop stop-color="#0E6EFF"/>
<stop offset="0.869792" stop-color="#0ED0FF"/>
<stop offset="1" stop-color="#0ED4FF"/>
</linearGradient>
</defs>
</svg>
