<svg width="323" height="12" viewBox="0 0 323 12" fill="none" xmlns="http://www.w3.org/2000/svg">
<path d="M322.774 6L317 0.226497L311.226 6L317 11.7735L322.774 6ZM311.056 5C310.503 5 310.056 5.44771 310.056 6C310.056 6.55228 310.503 7 311.056 7L311.056 5ZM299.167 7C299.719 7 300.167 6.55228 300.167 6C300.167 5.44771 299.719 5 299.167 5L299.167 7ZM287.278 5C286.725 5 286.278 5.44771 286.278 6C286.278 6.55228 286.725 7 287.278 7L287.278 5ZM275.389 7C275.941 7 276.389 6.55228 276.389 6C276.389 5.44771 275.941 5 275.389 5L275.389 7ZM263.5 5C262.948 5 262.5 5.44771 262.5 6C262.5 6.55228 262.948 7 263.5 7L263.5 5ZM251.611 6.99999C252.163 6.99999 252.611 6.55228 252.611 5.99999C252.611 5.44771 252.163 4.99999 251.611 4.99999L251.611 6.99999ZM239.722 4.99999C239.17 4.99999 238.722 5.44771 238.722 5.99999C238.722 6.55228 239.17 6.99999 239.722 6.99999L239.722 4.99999ZM227.833 6.99999C228.386 6.99999 228.833 6.55228 228.833 5.99999C228.833 5.44771 228.386 4.99999 227.833 4.99999L227.833 6.99999ZM215.944 4.99999C215.392 4.99999 214.944 5.44771 214.944 5.99999C214.944 6.55228 215.392 6.99999 215.944 6.99999L215.944 4.99999ZM204.056 6.99999C204.608 6.99999 205.056 6.55227 205.056 5.99999C205.056 5.44771 204.608 4.99999 204.056 4.99999L204.056 6.99999ZM192.167 4.99999C191.614 4.99999 191.167 5.4477 191.167 5.99999C191.167 6.55227 191.614 6.99999 192.167 6.99999L192.167 4.99999ZM180.278 6.99999C180.83 6.99999 181.278 6.55227 181.278 5.99999C181.278 5.4477 180.83 4.99999 180.278 4.99999L180.278 6.99999ZM168.389 4.99999C167.837 4.99999 167.389 5.4477 167.389 5.99999C167.389 6.55227 167.837 6.99999 168.389 6.99999L168.389 4.99999ZM156.5 6.99999C157.052 6.99999 157.5 6.55227 157.5 5.99999C157.5 5.4477 157.052 4.99999 156.5 4.99999L156.5 6.99999ZM144.611 4.99998C144.059 4.99998 143.611 5.4477 143.611 5.99998C143.611 6.55227 144.059 6.99998 144.611 6.99998L144.611 4.99998ZM132.722 6.99998C133.275 6.99998 133.722 6.55227 133.722 5.99998C133.722 5.4477 133.275 4.99998 132.722 4.99998L132.722 6.99998ZM120.833 4.99998C120.281 4.99998 119.833 5.4477 119.833 5.99998C119.833 6.55227 120.281 6.99998 120.833 6.99998L120.833 4.99998ZM108.944 6.99998C109.497 6.99998 109.944 6.55227 109.944 5.99998C109.944 5.4477 109.497 4.99998 108.944 4.99998L108.944 6.99998ZM97.0556 4.99998C96.5033 4.99998 96.0556 5.4477 96.0556 5.99998C96.0556 6.55227 96.5033 6.99998 97.0556 6.99998L97.0556 4.99998ZM85.1667 6.99998C85.719 6.99998 86.1667 6.55226 86.1667 5.99998C86.1667 5.4477 85.719 4.99998 85.1667 4.99998L85.1667 6.99998ZM73.2778 4.99998C72.7255 4.99998 72.2778 5.44769 72.2778 5.99998C72.2778 6.55226 72.7255 6.99998 73.2778 6.99998L73.2778 4.99998ZM61.3889 6.99998C61.9412 6.99998 62.3889 6.55226 62.3889 5.99998C62.3889 5.44769 61.9412 4.99998 61.3889 4.99998L61.3889 6.99998ZM49.5 4.99998C48.9478 4.99998 48.5 5.44769 48.5 5.99998C48.5 6.55226 48.9478 6.99998 49.5 6.99998L49.5 4.99998ZM37.6111 6.99998C38.1635 6.99998 38.6111 6.55226 38.6111 5.99998C38.6111 5.44769 38.1635 4.99998 37.6111 4.99998L37.6111 6.99998ZM25.7223 4.99997C25.17 4.99997 24.7223 5.44769 24.7223 5.99997C24.7223 6.55226 25.17 6.99997 25.7223 6.99997L25.7223 4.99997ZM13.8334 6.99997C14.3857 6.99997 14.8334 6.55226 14.8334 5.99997C14.8334 5.44769 14.3857 4.99997 13.8334 4.99997L13.8334 6.99997ZM1.94449 4.99997C1.39221 4.99997 0.944489 5.44769 0.944489 5.99997C0.944488 6.55226 1.39221 6.99997 1.94449 6.99997L1.94449 4.99997ZM317 5L311.056 5L311.056 7L317 7L317 5ZM299.167 5L287.278 5L287.278 7L299.167 7L299.167 5ZM275.389 5L263.5 5L263.5 7L275.389 7L275.389 5ZM251.611 4.99999L239.722 4.99999L239.722 6.99999L251.611 6.99999L251.611 4.99999ZM227.833 4.99999L215.944 4.99999L215.944 6.99999L227.833 6.99999L227.833 4.99999ZM204.056 4.99999L192.167 4.99999L192.167 6.99999L204.056 6.99999L204.056 4.99999ZM180.278 4.99999L168.389 4.99999L168.389 6.99999L180.278 6.99999L180.278 4.99999ZM156.5 4.99999L144.611 4.99998L144.611 6.99998L156.5 6.99999L156.5 4.99999ZM132.722 4.99998L120.833 4.99998L120.833 6.99998L132.722 6.99998L132.722 4.99998ZM108.944 4.99998L97.0556 4.99998L97.0556 6.99998L108.944 6.99998L108.944 4.99998ZM85.1667 4.99998L73.2778 4.99998L73.2778 6.99998L85.1667 6.99998L85.1667 4.99998ZM61.3889 4.99998L49.5 4.99998L49.5 6.99998L61.3889 6.99998L61.3889 4.99998ZM37.6111 4.99998L25.7223 4.99997L25.7223 6.99997L37.6111 6.99998L37.6111 4.99998ZM13.8334 4.99997L1.94449 4.99997L1.94449 6.99997L13.8334 6.99997L13.8334 4.99997Z" fill="url(#paint0_linear_97_127)"/>
<defs>
<linearGradient id="paint0_linear_97_127" x1="341.731" y1="5.46392" x2="340.424" y2="-8.48272" gradientUnits="userSpaceOnUse">
<stop stop-color="#0E6EFF"/>
<stop offset="0.869792" stop-color="#0ED0FF"/>
<stop offset="1" stop-color="#0ED4FF"/>
</linearGradient>
</defs>
</svg>
